<?xml version="1.0" standalone="no"?>
<!DOCTYPE svg PUBLIC "-//W3C//DTD SVG 20010904//EN"
 "http://www.w3.org/TR/2001/REC-SVG-20010904/DTD/svg10.dtd">
<svg version="1.0" xmlns="http://www.w3.org/2000/svg"
 width="20px" height="20px" viewBox="0 0 504.000000 667.000000"
 preserveAspectRatio="xMidYMid meet">

<g transform="translate(0.000000,667.000000) scale(0.100000,-0.100000)"
fill="#E31E24" stroke="none">
<path d="M2192 6515 c-95 -27 -174 -79 -211 -139 -19 -30 -26 -34 -83 -39
-151 -14 -287 -85 -364 -190 -52 -70 -94 -192 -94 -272 0 -53 -1 -55 -37 -74
-121 -62 -178 -214 -126 -331 19 -42 84 -112 114 -122 23 -8 -3 -31 -102 -93
l-89 -55 -32 36 c-64 73 -173 97 -263 60 -21 -9 -61 -16 -89 -16 -113 0 -212
-63 -263 -168 -23 -46 -28 -70 -28 -132 0 -65 4 -84 33 -142 36 -73 87 -124
159 -158 l45 -21 -18 -27 c-79 -119 -134 -215 -185 -320 -64 -132 -81 -180
-130 -372 -28 -109 -36 -128 -63 -150 -242 -195 -346 -413 -346 -724 0 -143
16 -242 58 -348 32 -84 103 -196 154 -246 l34 -32 -27 -58 c-38 -78 -46 -148
-25 -225 40 -147 170 -241 362 -263 l54 -7 -30 -40 c-44 -60 -74 -158 -67
-219 7 -58 43 -140 81 -185 42 -50 138 -93 206 -93 32 0 77 -7 100 -15 111
-39 255 5 282 87 5 13 166 -82 195 -114 15 -18 16 -22 3 -26 -30 -10 -109
-101 -119 -139 -36 -128 21 -257 139 -318 26 -13 30 -21 30 -55 0 -21 5 -63
11 -92 46 -215 214 -360 447 -384 58 -6 65 -10 89 -43 68 -95 178 -144 323
-145 112 -1 168 15 261 76 40 25 67 37 75 32 47 -36 107 -70 154 -88 79 -30
233 -29 312 3 70 27 139 79 168 126 19 30 27 35 59 35 56 0 185 36 243 67 142
77 218 207 243 414 5 40 10 49 35 59 41 17 115 99 131 146 19 58 16 142 -9
190 -23 45 -76 101 -104 110 -36 11 -22 26 99 103 l82 52 33 -37 c18 -20 51
-45 73 -55 48 -22 134 -24 190 -4 22 8 63 15 91 15 111 0 210 64 261 168 23
47 28 70 28 132 0 65 -5 85 -33 142 -38 78 -102 139 -173 165 l-48 19 41 64
c163 255 257 469 328 748 84 331 82 749 -5 1093 -65 258 -154 464 -298 687
-33 51 -58 94 -56 95 2 2 24 12 48 22 98 43 176 158 188 276 8 74 -29 172 -86
229 -61 60 -110 82 -201 90 -41 4 -88 12 -104 19 -49 20 -140 16 -191 -9 -41
-20 -78 -55 -88 -83 -4 -12 -175 91 -198 120 -12 14 -12 17 0 21 28 9 90 75
110 116 56 115 -1 275 -121 337 -35 18 -38 23 -38 62 -1 115 -52 240 -137 328
-80 84 -229 148 -344 149 -31 0 -40 6 -64 39 -15 22 -50 56 -78 75 -83 57
-128 70 -247 70 -119 0 -180 -18 -270 -80 -27 -19 -52 -34 -55 -34 -3 0 -25
15 -50 34 -96 73 -264 105 -383 71z m247 -166 c64 -28 123 -80 165 -144 l37
-55 40 59 c43 64 117 125 177 147 62 22 169 17 228 -10 79 -37 124 -120 95
-175 -14 -25 -14 -25 35 -5 29 12 61 15 129 12 149 -7 246 -67 304 -188 24
-51 26 -66 26 -186 l0 -131 41 5 c106 12 187 -106 119 -173 -28 -29 -42 -31
-67 -8 -25 22 -24 70 2 78 28 9 45 -4 25 -19 -13 -10 -14 -14 -2 -30 13 -17
14 -17 30 -1 24 24 21 62 -8 90 -99 100 -193 -141 -115 -295 43 -86 85 -126
238 -221 174 -110 241 -135 316 -119 60 13 82 27 96 64 18 48 -34 105 -85 92
-35 -9 -31 -35 6 -48 30 -10 31 -11 12 -30 -24 -24 -47 -15 -63 23 -15 35 -8
56 24 70 55 25 126 -24 126 -86 0 -75 -46 -108 -151 -109 l-67 -1 47 -28 c71
-42 168 -69 219 -62 120 18 176 179 76 221 -47 20 -68 9 -59 -30 11 -53 10
-79 -1 -83 -14 -5 -39 33 -48 74 -6 27 -3 37 19 59 22 22 32 25 63 19 77 -14
122 -68 122 -148 0 -131 -130 -210 -265 -162 -22 8 -42 15 -44 15 -1 0 11 -16
29 -36 23 -27 30 -44 28 -67 -4 -37 -32 -49 -41 -17 -3 13 0 20 9 20 8 0 14 3
14 7 0 17 -55 84 -98 120 -66 55 -360 260 -462 321 -263 157 -575 267 -905
318 -386 59 -933 -74 -1348 -329 -157 -96 -404 -272 -465 -331 -62 -60 -92
-106 -67 -106 17 0 19 -9 5 -30 -8 -13 -11 -13 -26 2 -21 21 -13 56 22 97 30
36 29 36 -19 16 -66 -28 -159 -13 -210 33 -30 27 -57 88 -57 128 0 107 113
189 184 133 24 -19 27 -27 23 -57 -4 -19 -13 -45 -23 -59 -15 -23 -17 -24 -32
-9 -15 14 -14 19 1 51 21 44 21 42 -3 55 -29 16 -87 -11 -96 -45 -29 -117 72
-205 200 -174 49 11 186 74 186 85 0 3 -16 2 -35 -2 -87 -16 -185 40 -185 106
0 62 87 119 139 91 27 -15 28 -64 1 -91 -16 -16 -25 -18 -40 -10 -27 14 -25
29 5 40 29 11 33 36 6 45 -44 13 -91 -27 -91 -78 0 -56 99 -96 186 -77 57 13
57 13 226 117 189 117 248 186 269 312 17 105 -36 231 -97 231 -25 0 -74 -52
-74 -79 0 -10 9 -26 21 -37 17 -16 22 -16 29 -4 14 21 12 30 -5 36 -20 8 -9
24 16 24 42 0 40 -82 -2 -95 -34 -11 -79 36 -79 83 0 29 37 80 71 97 19 10 48
15 73 13 l41 -3 0 125 c0 116 2 129 29 187 33 73 94 134 164 165 71 32 214 37
275 10 l45 -20 -13 33 c-28 65 23 148 109 179 62 22 172 20 225 -5z m448
-1004 c365 -48 687 -181 988 -408 104 -79 294 -269 374 -375 350 -463 489
-1038 390 -1609 l-11 -63 -270 0 c-253 0 -270 1 -263 18 4 9 17 60 28 112 18
80 21 128 21 300 0 175 -3 220 -21 303 -114 507 -437 900 -903 1100 -188 80
-373 117 -587 117 -162 0 -243 -10 -388 -47 -381 -98 -709 -342 -919 -683
l-45 -72 -280 -2 c-249 -1 -281 1 -281 15 0 25 133 286 190 374 163 249 405
485 655 638 198 121 426 211 650 257 193 41 473 51 672 25z m-323 -794 c17 -6
61 -17 99 -27 37 -9 69 -20 72 -24 2 -4 -26 1 -63 11 -86 24 -102 24 -102 -1
0 -25 -28 -27 -45 -3 -19 26 -62 2 -82 -45 -17 -41 -16 -75 14 -372 19 -198
23 -213 58 -204 38 9 31 -15 -10 -32 -50 -20 -118 -18 -139 5 -16 17 -27 85
-52 316 -8 74 -13 68 -81 -86 -65 -148 -71 -148 -154 16 -71 139 -75 139 -78
0 -2 -80 -21 -173 -44 -208 -32 -49 -124 -71 -195 -46 -35 12 -46 32 -32 60
14 25 26 24 45 -5 32 -49 112 -40 140 15 19 36 32 131 41 290 8 152 1 174 -54
166 -43 -7 -92 -52 -92 -84 0 -27 26 -41 43 -24 16 16 44 14 51 -5 18 -47 -10
-84 -65 -84 -52 0 -83 38 -76 96 9 83 77 134 187 142 103 7 118 -5 191 -150
l61 -121 27 49 c15 27 52 94 82 148 55 102 127 191 163 206 28 12 54 12 90 1z
m285 -65 c14 -15 21 -33 19 -48 -2 -19 -10 -24 -41 -26 -45 -4 -77 19 -77 53
0 48 61 62 99 21z m106 -111 c12 -16 13 -16 9 -2 -9 25 -2 21 41 -25 22 -23
32 -36 22 -29 -16 13 -17 12 -7 -15 6 -15 16 -35 23 -44 6 -8 -2 -4 -18 11
-17 14 -39 32 -49 40 -39 29 2 -28 43 -62 22 -17 42 -41 45 -52 l6 -22 15 23
c21 29 71 55 95 47 24 -8 33 -37 25 -75 -7 -32 -19 -39 -29 -15 -8 21 -35 19
-73 -5 l-33 -20 0 -133 c0 -90 -4 -137 -12 -145 -17 -17 -84 -15 -102 4 -13
13 -16 44 -16 181 0 160 -1 165 -20 160 -43 -11 -29 15 19 35 28 12 51 26 51
31 0 4 -5 5 -12 1 -6 -4 -8 -3 -5 3 4 6 -5 19 -19 28 -16 10 -23 12 -18 4 4
-7 -20 7 -54 31 -67 47 -79 59 -32 35 37 -19 50 -19 24 0 -19 14 -19 14 1 16
11 1 23 1 28 0 4 0 6 2 6 7 -1 4 -1 16 0 27 l2 20 15 -20 c8 -11 21 -29 29
-40z m-264 -25 c29 -27 54 -69 46 -77 -3 -2 -8 5 -12 18 -6 17 -9 19 -16 8 -7
-11 -9 -11 -9 -1 0 7 -16 34 -35 59 -19 25 -35 51 -34 57 0 6 8 0 17 -14 9
-14 29 -36 43 -50z m64 -41 c9 -17 15 -33 13 -35 -3 -2 -12 12 -21 31 -21 43
-13 47 8 4z m95 -57 c0 -8 -66 52 -79 72 -8 12 7 1 32 -24 26 -24 47 -46 47
-48z m-54 -12 c14 0 36 -11 49 -25 48 -47 31 -78 -80 -145 -47 -28 -85 -53
-85 -56 0 -3 6 -19 14 -38 28 -68 105 -97 162 -60 32 21 43 11 18 -17 -70 -78
-211 -78 -276 -1 -75 89 -56 247 38 308 35 24 128 53 132 43 2 -5 15 -9 28 -9z
m712 -22 c78 -48 104 -197 49 -291 -66 -112 -223 -118 -297 -10 -49 72 -36
225 24 282 56 53 155 61 224 19z m-1267 -514 c54 -27 59 -57 59 -324 l0 -241
73 74 c84 86 130 110 209 111 65 1 100 -19 133 -75 48 -83 8 -225 -86 -299
-27 -21 -54 -40 -61 -43 -19 -7 67 -171 174 -334 77 -117 90 -133 110 -128
120 27 368 32 483 10 131 -25 185 -70 185 -157 0 -57 -37 -116 -116 -186 -79
-71 -163 -111 -255 -123 -156 -20 -256 17 -367 136 l-69 74 -494 -165 c-715
-239 -846 -269 -981 -230 -112 32 -161 102 -162 231 -1 94 28 168 88 228 63
63 109 81 206 81 78 1 91 -2 160 -36 71 -35 197 -125 187 -134 -2 -2 -17 2
-33 11 -116 60 -368 32 -473 -53 -75 -60 -106 -167 -68 -226 29 -44 74 -61
157 -60 112 0 209 36 584 216 290 138 471 220 606 270 58 22 106 41 108 43 2
1 -34 58 -78 126 -79 119 -183 317 -194 369 -5 21 2 31 45 64 70 54 135 144
148 206 13 62 7 80 -30 80 -42 0 -109 -65 -153 -149 l-36 -69 0 -210 c0 -206
-1 -212 -23 -238 -39 -45 -154 -47 -197 -4 -19 19 -20 36 -20 534 0 476 -1
515 -18 536 -15 18 -21 20 -44 11 -29 -11 -45 0 -32 20 3 6 34 24 68 40 71 34
157 39 207 13z m1620 -22 l29 -32 0 -540 c0 -522 -1 -541 -19 -559 -43 -43
-161 -40 -198 4 l-23 26 0 514 c0 454 -2 515 -16 529 -18 19 -20 19 -46 5 -15
-8 -23 -8 -32 1 -14 15 21 42 89 70 37 15 68 19 119 17 63 -3 71 -5 97 -35z
m-2885 -28 c130 -35 191 -129 150 -228 -18 -43 -51 -66 -97 -66 -50 0 -68 24
-89 120 -22 98 -39 120 -92 120 -96 0 -202 -98 -254 -236 -98 -259 -56 -622
84 -719 33 -23 56 -30 107 -33 35 -2 76 -1 90 2 l25 6 0 190 0 190 -65 0 -65
0 0 35 0 35 235 0 235 0 0 -35 0 -35 -55 0 -55 0 0 -238 c0 -250 -9 -330 -42
-397 -74 -146 -211 -217 -423 -219 -87 -1 -106 2 -150 24 -43 22 -50 30 -53
58 -4 40 21 82 48 82 12 0 29 -15 45 -40 47 -75 122 -90 216 -42 31 16 63 41
77 61 30 46 52 124 52 186 l0 52 -97 -5 c-332 -15 -532 188 -533 540 0 230 93
418 263 529 124 80 292 105 443 63z m709 -335 c193 -35 298 -194 282 -424 -16
-235 -171 -387 -377 -373 -123 9 -223 72 -277 175 -113 213 -40 514 144 595
80 35 143 43 228 27z m1317 1 c20 -6 46 -22 58 -37 19 -24 20 -39 20 -302 0
-302 4 -323 53 -329 31 -4 87 27 117 65 19 24 20 40 20 242 0 119 -3 226 -6
239 -7 25 -30 29 -53 8 -10 -10 -22 -12 -30 -6 -11 6 -10 13 8 37 80 101 234
122 295 40 20 -27 21 -42 24 -335 3 -326 5 -336 50 -306 18 12 27 13 35 5 15
-15 -43 -75 -98 -101 -101 -49 -225 -4 -225 82 0 16 -3 28 -6 28 -3 0 -25 -17
-49 -38 -78 -68 -181 -105 -249 -88 -33 8 -83 51 -104 90 -14 26 -18 73 -22
316 -5 265 -6 285 -23 288 -10 2 -27 -4 -37 -13 -11 -10 -20 -13 -24 -6 -24
38 105 129 184 131 14 0 42 -5 62 -10z m1419 -502 c69 -32 125 -88 158 -158
35 -75 36 -193 3 -261 -35 -73 -87 -125 -157 -160 -59 -29 -70 -31 -147 -27
-98 4 -155 28 -218 91 -69 68 -92 128 -91 235 1 135 91 255 224 298 62 20 163
12 228 -18z m-121 -672 c0 -17 -174 -217 -256 -296 -329 -315 -738 -509 -1179
-560 -131 -14 -376 -12 -508 5 -208 27 -436 96 -624 188 -46 22 -83 43 -83 46
0 4 85 91 189 195 l189 189 113 -37 c146 -46 235 -64 377 -76 322 -26 662 61
937 240 44 29 95 66 113 81 l33 29 349 0 c193 0 350 -2 350 -4z m-3320 -210
c0 -2 3 -11 6 -20 4 -11 1 -16 -10 -16 -15 0 -15 -3 -2 -27 50 -98 458 -386
741 -523 330 -161 729 -250 1026 -229 208 15 520 93 735 184 155 66 317 161
523 305 220 155 256 183 292 233 33 46 35 54 13 59 -13 3 -13 6 -1 22 8 11 19
16 25 12 20 -12 13 -60 -13 -96 -14 -19 -25 -35 -25 -35 0 -1 26 5 58 13 67
18 115 11 163 -21 53 -36 79 -82 79 -141 0 -83 -47 -140 -123 -153 -29 -4 -40
-1 -62 21 -22 22 -25 32 -19 59 9 40 33 79 48 74 16 -5 20 -37 6 -62 -20 -38
-9 -60 29 -58 63 3 96 69 68 135 -48 112 -181 121 -347 23 l-45 -27 36 5 c57
8 130 -10 161 -40 70 -67 0 -183 -97 -159 -32 8 -43 48 -21 81 18 28 47 32 66
10 10 -12 7 -15 -13 -20 -29 -8 -44 -35 -25 -47 24 -15 50 -8 79 22 23 23 29
35 24 52 -17 55 -61 79 -142 79 -66 0 -113 -21 -286 -128 -142 -88 -184 -128
-227 -213 -78 -155 16 -395 115 -295 29 28 32 66 8 90 -16 16 -17 16 -30 -1
-12 -16 -11 -21 3 -31 16 -12 16 -13 1 -19 -28 -10 -47 3 -47 34 0 35 16 52
51 52 53 0 76 -72 42 -130 -24 -41 -70 -63 -123 -59 l-45 4 0 -130 c0 -119 -2
-135 -26 -186 -48 -102 -142 -170 -261 -188 -57 -9 -153 0 -186 18 -30 16 -33
14 -21 -13 19 -40 2 -96 -40 -136 -46 -44 -97 -60 -187 -60 -111 1 -197 50
-269 155 -21 30 -41 55 -44 55 -3 0 -19 -20 -34 -44 -37 -59 -98 -113 -161
-142 -74 -35 -182 -34 -254 2 -77 38 -111 106 -88 172 7 22 6 23 -13 13 -68
-37 -204 -32 -303 11 -62 26 -140 111 -162 175 -21 60 -31 204 -18 259 l9 41
-47 -5 c-76 -7 -136 34 -147 101 -5 31 -1 40 24 66 34 34 64 33 80 -2 14 -30
-1 -67 -26 -67 -11 0 -23 5 -26 10 -3 6 1 10 9 10 19 0 21 21 4 38 -15 15 -48
-12 -48 -39 0 -27 49 -79 74 -79 63 0 115 128 95 234 -14 78 -39 126 -97 185
-52 53 -292 206 -360 229 -87 29 -210 0 -220 -52 -11 -53 36 -104 83 -92 32 8
32 34 -1 46 -30 12 -27 34 6 38 46 7 71 -76 31 -98 -37 -19 -72 -11 -107 24
-79 79 -15 168 123 169 35 0 63 2 63 4 0 5 -103 55 -144 70 -54 19 -137 18
-176 -2 -65 -33 -94 -141 -50 -185 26 -26 66 -35 85 -20 12 10 12 17 -2 51
-12 32 -13 42 -3 54 17 20 35 5 50 -41 16 -48 6 -79 -30 -94 -54 -22 -131 15
-156 76 -42 101 24 220 134 240 35 7 105 -4 147 -22 17 -7 15 -2 -8 25 -33 40
-43 76 -27 96 12 14 30 20 30 11z"/>
<path d="M2257 6346 c-31 -7 -62 -17 -68 -23 -7 -7 8 -6 38 2 84 22 204 -5
296 -65 25 -17 22 -13 -11 17 -69 63 -161 88 -255 69z"/>
<path d="M2913 6349 c-51 -9 -107 -38 -153 -79 l-35 -31 50 27 c28 15 55 31
60 35 43 31 204 40 255 14 16 -8 30 -13 30 -11 0 3 -14 13 -32 22 -41 21 -122
32 -175 23z"/>
<path d="M2235 6309 c-59 -14 -115 -63 -115 -100 0 -37 32 -69 69 -69 38 0 59
24 34 39 -16 10 -15 11 7 9 55 -6 18 -78 -40 -78 l-31 0 26 -37 c20 -30 25
-50 25 -98 -1 -137 -97 -231 -216 -212 -31 5 -35 4 -29 -11 35 -83 -20 -172
-107 -172 -78 0 -128 90 -77 141 27 27 73 23 77 -8 2 -13 -1 -23 -7 -23 -6 0
-11 7 -11 16 0 20 -29 15 -44 -9 -15 -24 10 -67 46 -80 37 -12 100 18 112 54
28 83 -67 162 -168 139 -48 -11 -84 -36 -113 -80 -27 -39 -29 -79 -7 -122 12
-24 15 -50 12 -107 -5 -85 -35 -165 -88 -231 l-31 -39 133 64 c311 149 660
235 953 235 299 0 662 -93 973 -249 l102 -51 -39 57 c-57 83 -84 172 -78 251
2 34 9 68 15 75 23 28 23 58 2 102 -51 106 -196 132 -270 48 -38 -42 -38 -74
-1 -115 22 -25 37 -32 64 -32 60 0 100 57 65 92 -18 18 -41 15 -34 -4 4 -10 1
-14 -6 -12 -7 3 -13 13 -13 24 0 25 39 30 71 10 57 -38 7 -146 -68 -146 -39 0
-92 30 -109 61 -15 28 -15 94 -1 111 8 10 -4 13 -57 13 -59 0 -72 4 -105 29
-85 64 -110 199 -54 283 l25 39 -32 -4 c-26 -3 -36 2 -54 24 -12 15 -20 32
-18 38 5 14 57 21 57 7 0 -6 -7 -8 -16 -4 -12 4 -15 1 -12 -13 2 -12 13 -20
30 -22 60 -7 100 46 73 97 -17 33 -86 69 -150 77 -60 9 -167 -25 -237 -75 -76
-55 -81 -71 -17 -58 115 23 220 -57 221 -168 3 -144 -192 -205 -262 -82 -21
38 -4 81 34 85 30 4 30 5 10 -59 -3 -8 4 -26 15 -40 l20 -24 -6 38 c-7 46 5
47 45 7 36 -35 50 -37 85 -10 73 57 47 169 -50 219 -50 26 -213 -3 -213 -38 0
-6 -16 0 -35 14 -68 45 -160 50 -221 10 -74 -48 -86 -167 -21 -210 32 -21 75
-10 89 21 12 27 36 32 44 10 3 -8 0 -25 -7 -38 -12 -23 -12 -23 10 -4 24 22
27 47 9 76 -18 28 8 45 37 26 15 -11 20 -24 19 -57 -1 -61 -36 -89 -111 -89
-92 0 -144 46 -150 134 -8 97 69 179 169 180 29 1 67 -3 83 -7 l30 -8 -35 36
c-76 79 -227 128 -325 104z m92 -513 c57 -49 27 -148 -65 -217 -32 -24 -61
-46 -65 -49 -4 -4 28 0 72 8 78 15 80 16 75 42 -9 45 23 63 104 58 l68 -3 -23
34 c-31 45 -38 77 -24 107 24 53 103 52 117 -1 7 -30 -7 -50 -30 -42 -20 8
-21 27 -1 27 21 0 19 17 -4 29 -43 23 -52 -50 -15 -121 15 -29 88 -88 108 -88
23 0 89 65 107 104 34 76 16 141 -27 98 -16 -16 -16 -17 -1 -20 23 -5 21 -32
-2 -32 -39 0 -33 57 9 80 28 15 48 12 70 -10 27 -27 25 -74 -5 -125 l-24 -42
40 7 c39 7 94 0 118 -14 6 -4 11 -22 11 -40 0 -33 1 -34 63 -45 34 -7 71 -14
82 -17 11 -3 4 4 -15 16 -47 29 -108 89 -126 122 -40 76 -1 158 75 158 77 0
137 -90 81 -120 -25 -13 -40 -5 -40 21 0 16 5 19 20 14 13 -4 20 -2 20 7 0 22
-22 38 -50 38 -78 0 -63 -116 26 -203 42 -40 61 -48 44 -18 -5 11 -10 36 -10
55 0 43 35 72 74 62 29 -7 43 -41 26 -61 -18 -22 -30 -18 -30 10 0 18 -5 25
-20 25 -30 0 -41 -37 -23 -80 20 -50 38 -63 128 -95 157 -55 395 -168 382
-181 -2 -3 -38 13 -78 35 -157 84 -412 169 -624 206 -124 22 -378 30 -495 16
-238 -29 -506 -108 -704 -207 -60 -30 -111 -53 -112 -51 -13 13 261 141 398
186 44 15 76 32 92 51 30 36 42 85 26 105 -16 19 -54 20 -47 2 7 -19 -8 -41
-22 -33 -6 4 -11 20 -11 36 0 23 6 31 24 36 57 14 95 -41 72 -106 l-14 -40 30
22 c68 48 121 157 99 205 -13 28 -61 32 -85 7 -20 -20 -12 -34 14 -27 23 6 28
-15 8 -35 -16 -16 -23 -15 -42 4 -23 22 -20 57 7 81 44 41 103 44 144 9z"/>
<path d="M2289 5786 c28 -29 28 -89 0 -141 l-21 -40 22 20 c66 59 65 161 -1
178 l-21 6 21 -23z"/>
<path d="M2956 5778 c-29 -42 -12 -111 39 -158 l27 -25 -20 35 c-30 52 -37
103 -19 139 13 26 13 31 2 31 -8 0 -21 -10 -29 -22z"/>
<path d="M2487 5783 c-9 -9 -9 -55 1 -70 4 -7 7 8 7 33 0 24 0 44 -1 44 0 0
-4 -3 -7 -7z"/>
<path d="M2791 5758 c-1 -20 -3 -45 -6 -55 -3 -10 1 -4 10 14 10 22 12 39 5
55 -8 20 -9 19 -9 -14z"/>
<path d="M2387 5618 c-16 -6 -27 -16 -25 -25 2 -8 8 -13 13 -11 6 2 9 6 8 11
-2 4 4 7 12 7 8 0 15 -8 15 -18 0 -17 7 -19 78 -14 42 2 81 8 86 12 9 9 -113
51 -143 49 -9 0 -29 -5 -44 -11z"/>
<path d="M2766 5611 c-91 -30 -92 -41 -5 -41 40 0 84 -3 96 -6 18 -5 21 -3 16
15 -4 15 -1 21 10 21 9 0 17 -8 20 -17 4 -17 4 -17 12 0 18 43 -59 57 -149 28z"/>
<path d="M1829 6139 c-91 -32 -167 -109 -189 -191 -7 -28 -7 -30 3 -14 31 51
107 121 162 149 54 28 70 31 151 31 84 1 94 -1 132 -27 50 -35 77 -87 76 -150
-1 -54 -21 -89 -74 -124 -62 -43 -152 -20 -179 45 -16 37 1 80 37 98 29 15 12
29 -24 20 -16 -4 -30 -19 -40 -41 -27 -65 24 -139 109 -159 66 -16 153 37 184
112 19 46 19 122 -1 160 -21 40 -78 87 -125 101 -57 17 -158 12 -222 -10z"/>
<path d="M3202 6135 c-73 -37 -105 -82 -110 -153 -4 -70 24 -131 81 -176 66
-53 173 -35 218 37 23 37 20 88 -7 118 -18 20 -59 25 -69 9 -3 -5 1 -10 9 -10
26 0 56 -38 56 -71 0 -47 -56 -99 -106 -99 -88 0 -154 66 -154 152 0 55 15 91
57 130 38 36 73 48 144 48 114 0 237 -65 299 -158 21 -30 29 -38 25 -22 -39
132 -147 209 -305 217 -77 4 -90 2 -138 -22z"/>
<path d="M3300 6103 c-14 -2 -44 -11 -68 -19 -50 -18 -92 -80 -92 -135 0 -109
142 -169 204 -86 19 26 19 30 6 54 -19 34 -40 41 -40 14 0 -25 -15 -28 -24 -5
-9 25 -7 33 14 54 46 46 120 2 120 -72 0 -22 -4 -47 -10 -57 -9 -17 -4 -18 53
-18 72 0 110 -16 155 -67 37 -42 47 -33 37 32 -15 107 -83 206 -177 257 -57
31 -138 53 -178 48z"/>
<path d="M1856 6080 c-69 -27 -121 -66 -161 -120 -45 -62 -65 -119 -65 -189
l0 -56 19 31 c39 63 129 101 202 85 l36 -8 -13 26 c-22 41 -17 86 12 120 29
34 58 39 92 15 25 -17 28 -64 4 -72 -7 -2 -12 0 -11 5 5 26 -2 33 -20 24 -43
-23 -30 -82 23 -108 30 -14 42 -14 75 -5 117 36 124 194 11 253 -46 25 -139
24 -204 -1z"/>
<path d="M2543 5979 c8 -21 13 -26 15 -14 5 21 -5 45 -17 45 -5 0 -4 -13 2
-31z"/>
<path d="M2732 5998 c-7 -7 -12 -21 -12 -32 1 -18 3 -17 16 7 17 31 15 44 -4
25z"/>
<path d="M3683 5630 c-41 -25 -58 -82 -47 -159 l8 -56 6 65 c9 85 17 109 48
143 31 32 28 34 -15 7z"/>
<path d="M1606 5594 c18 -36 24 -65 25 -118 1 -65 2 -68 11 -36 14 50 5 136
-18 167 -33 44 -43 37 -18 -13z"/>
<path d="M4558 4983 c-13 -93 -78 -138 -191 -131 -66 4 -69 3 -38 -9 100 -41
188 -15 229 68 19 38 21 54 14 80 l-8 34 -6 -42z"/>
<path d="M711 4975 c-2 -91 79 -162 171 -151 26 3 59 11 73 18 24 13 20 14
-40 10 -108 -7 -161 27 -191 123 l-13 40 0 -40z"/>
<path d="M2395 5316 c-631 -82 -1180 -439 -1495 -973 -50 -84 -130 -247 -130
-264 0 -5 111 -9 248 -9 l247 0 26 48 c83 150 274 357 432 469 405 286 927
365 1392 212 120 -40 271 -114 386 -190 126 -84 332 -291 418 -418 242 -364
318 -779 225 -1238 l-6 -33 230 0 230 0 11 63 c83 455 -16 971 -263 1376 -193
316 -480 584 -803 749 -179 91 -401 164 -603 197 -130 22 -419 28 -545 11z
m550 -26 c715 -116 1324 -624 1564 -1304 44 -123 77 -262 95 -394 24 -174 19
-479 -10 -614 l-6 -28 -215 0 -215 0 6 23 c42 157 45 477 7 659 -142 664 -676
1159 -1348 1249 -124 16 -392 6 -511 -20 -305 -67 -570 -209 -783 -421 -101
-100 -186 -204 -241 -298 l-25 -43 -237 -2 c-130 -1 -236 -1 -236 -1 0 12 80
170 118 235 200 339 488 603 847 780 315 154 629 217 995 197 69 -3 157 -11
195 -18z"/>
<path d="M2486 5290 c-687 -52 -1292 -451 -1612 -1065 l-55 -105 215 0 215 0
37 58 c231 361 595 610 1028 704 86 19 132 22 316 22 185 0 229 -3 315 -22
567 -126 1015 -523 1194 -1057 61 -183 75 -279 75 -505 0 -145 -5 -226 -16
-278 l-15 -72 196 2 196 3 12 80 c18 121 17 411 -2 540 -153 1031 -1071 1771
-2099 1695z m144 -95 c0 -22 -4 -25 -35 -25 -24 0 -35 -5 -35 -15 0 -10 10
-15 30 -15 23 0 30 -4 30 -20 0 -15 -7 -20 -25 -20 -16 0 -25 -6 -25 -15 0
-10 10 -15 29 -15 20 0 30 -6 34 -19 4 -17 -2 -20 -52 -23 -31 -2 -57 -4 -57
-3 -1 0 -5 41 -9 92 l-7 92 43 4 c24 2 52 4 62 5 12 1 17 -5 17 -23z m133 14
c53 -28 48 -53 -9 -45 -52 7 -51 -6 1 -28 59 -25 57 -84 -3 -107 -33 -13 -92
13 -92 40 0 16 6 21 25 21 14 0 25 -4 25 -10 0 -5 7 -10 15 -10 27 0 16 20
-22 37 -31 15 -39 24 -41 50 -5 50 50 79 101 52z m170 -14 c38 -5 48 -10 45
-23 -2 -10 -14 -18 -29 -20 -25 -3 -27 -7 -33 -73 -7 -65 -9 -69 -32 -69 l-26
0 7 74 c7 69 6 73 -14 79 -13 3 -21 13 -21 27 0 18 4 21 28 16 15 -2 49 -8 75
-11z m-469 -11 c20 -20 21 -68 1 -84 -12 -10 -11 -17 11 -46 l26 -34 -28 0
c-21 0 -37 9 -56 32 l-27 33 6 -37 c5 -36 4 -38 -20 -38 -27 0 -26 -3 -43 124
-8 58 0 66 68 66 29 0 52 -6 62 -16z m-285 -71 c10 -38 26 -92 34 -121 l15
-52 -25 -6 c-13 -4 -25 -5 -27 -3 -1 2 -16 56 -34 119 -24 86 -28 116 -19 122
26 17 37 5 56 -59z m941 40 c2 -2 9 -46 15 -98 10 -84 10 -95 -4 -95 -21 0
-36 11 -43 31 -8 22 -58 31 -65 13 -6 -15 -31 -18 -50 -6 -9 6 3 31 43 90 48
72 58 82 77 76 12 -3 24 -8 27 -11z m150 -48 c0 -7 -10 -36 -22 -65 -21 -51
-21 -53 -3 -66 24 -18 33 -9 60 59 17 40 26 51 41 49 10 -2 21 -6 23 -8 7 -7
-22 -86 -44 -118 -28 -42 -86 -48 -122 -14 -29 27 -28 64 5 140 17 38 24 46
41 41 12 -3 21 -11 21 -18z m-1306 -41 c34 -13 4 -51 -34 -42 -7 2 -15 -3 -17
-9 -3 -9 8 -13 39 -13 51 0 68 -13 68 -51 0 -31 -40 -69 -72 -69 -24 0 -58 18
-58 30 0 11 40 25 64 21 11 -2 17 2 14 11 -3 8 -17 12 -41 10 -38 -4 -77 23
-77 53 0 42 68 77 114 59z m1507 -34 c42 -22 66 -58 55 -85 -3 -9 -20 -23 -37
-33 -27 -15 -30 -21 -26 -54 3 -21 1 -38 -4 -38 -21 0 -49 42 -49 73 l-1 32
-15 -27 c-15 -29 -29 -34 -53 -19 -11 7 -5 25 29 90 23 44 46 81 52 81 5 0 27
-9 49 -20z m-1654 -26 c4 -10 -1 -22 -11 -30 -17 -12 -15 -17 18 -76 35 -63
35 -64 15 -77 -12 -7 -22 -11 -23 -9 -2 2 -18 29 -37 61 -30 51 -37 57 -60 52
-18 -4 -28 -1 -32 9 -4 10 11 26 51 50 65 41 70 42 79 20z m-161 -119 c-34
-27 -28 -54 7 -30 27 19 33 19 41 -1 4 -10 -2 -23 -16 -33 -32 -27 -14 -46 23
-24 26 16 31 16 39 3 5 -8 10 -17 10 -20 0 -5 -87 -60 -96 -60 -2 0 -27 35
-54 77 l-49 77 47 32 c41 28 49 30 62 17 13 -13 12 -17 -14 -38z m2000 37 l21
-17 -21 -92 c-11 -51 -25 -93 -31 -93 -17 0 -35 22 -35 41 0 25 -39 50 -60 39
-17 -9 -61 12 -49 24 14 14 145 115 149 115 3 0 14 -7 26 -17z m-2131 -127
c-25 -21 -27 -25 -12 -31 11 -4 25 0 36 10 17 15 19 15 32 0 12 -14 10 -19
-10 -36 -34 -27 -13 -47 24 -22 23 15 28 15 36 3 13 -21 12 -23 -35 -58 l-45
-31 -57 72 -58 72 45 38 c39 34 45 36 59 22 13 -14 12 -18 -15 -39z m2253 43
c7 -7 12 -39 12 -72 l0 -61 33 37 c29 34 34 36 51 23 18 -14 16 -18 -39 -89
-51 -68 -59 -74 -77 -63 -16 10 -19 21 -16 75 l3 63 -28 -35 c-30 -38 -46 -43
-64 -25 -9 9 3 31 44 85 30 41 58 74 62 74 4 0 12 -5 19 -12z m-2323 -175 l46
-76 -21 -21 -21 -21 -39 23 c-21 12 -42 22 -45 22 -3 0 6 -18 20 -40 30 -47
30 -52 7 -73 -16 -14 -23 -12 -97 28 -81 45 -93 60 -63 78 12 8 26 5 57 -16
22 -15 43 -27 46 -27 3 0 -8 21 -26 46 l-31 46 20 20 20 21 46 -27 c25 -15 46
-23 46 -19 0 4 -14 26 -30 47 -28 37 -29 41 -14 58 9 9 20 15 25 13 4 -3 29
-40 54 -82z m2520 7 c41 -42 46 -51 35 -65 -12 -14 -15 -14 -32 2 -18 16 -21
14 -71 -35 -50 -49 -54 -51 -70 -35 -16 16 -14 20 35 71 50 51 52 54 34 67
-16 12 -17 17 -6 30 7 8 15 15 19 15 4 0 29 -22 56 -50z m189 -173 c6 -9 8
-18 6 -20 -3 -1 -47 -36 -98 -76 -76 -61 -95 -71 -107 -61 -8 7 -15 16 -15 21
0 12 183 159 194 156 5 -2 14 -11 20 -20z m-2937 5 c10 -6 10 -12 -1 -28 -8
-10 -20 -19 -27 -19 -7 0 -14 -6 -16 -12 -6 -18 19 -16 43 2 23 18 66 19 82 3
34 -34 -7 -118 -57 -118 -15 0 -31 3 -34 7 -9 9 22 43 40 43 7 0 13 7 13 15 0
19 -11 19 -36 0 -28 -21 -81 -19 -94 4 -16 31 -12 51 19 82 30 30 47 35 68 21z
m3036 -209 c37 -58 41 -81 21 -104 -9 -10 -28 -19 -41 -19 -14 0 -23 -6 -23
-15 0 -9 -11 -20 -24 -26 -33 -15 -58 0 -91 57 -22 38 -25 48 -14 55 8 4 43
26 79 48 36 21 66 40 67 40 2 1 13 -16 26 -36z m108 -204 c10 -19 4 -29 -57
-90 -38 -38 -72 -69 -76 -69 -12 0 -20 42 -10 52 15 15 -9 68 -30 68 -15 0
-38 27 -38 44 0 5 60 11 152 14 39 2 49 -2 59 -19z m62 -158 c4 -15 -3 -23
-27 -31 l-31 -12 41 -18 c30 -13 43 -25 46 -44 5 -23 3 -26 -16 -20 -11 4 -33
13 -48 20 -38 20 -40 19 -73 -31 -16 -24 -33 -45 -36 -45 -4 0 -10 12 -13 26
-5 19 0 35 20 61 l27 36 -35 -7 c-31 -6 -36 -4 -41 16 -4 12 -5 23 -4 24 6 6
173 51 178 48 4 -2 9 -12 12 -23z m55 -218 c6 -32 9 -59 8 -60 0 0 -10 -3 -21
-5 -16 -2 -21 3 -23 30 -5 46 -32 43 -32 -3 0 -28 -4 -35 -20 -35 -15 0 -20 7
-20 25 0 18 -5 25 -19 25 -17 0 -19 -5 -14 -35 5 -31 3 -35 -15 -35 -21 0 -28
17 -35 89 -2 25 8 28 175 60 3 0 11 -25 16 -56z m22 -163 c0 -53 -3 -61 -26
-77 -25 -16 -28 -16 -56 0 -28 16 -31 16 -58 -3 -37 -26 -40 -25 -40 8 0 19
10 34 33 50 l32 22 -38 0 c-32 0 -37 3 -37 24 0 22 5 24 88 33 48 5 90 7 95 5
4 -2 7 -30 7 -62z m-124 -165 c-9 -57 4 -58 29 -2 17 35 25 43 52 45 24 2 34
-2 43 -18 18 -34 8 -90 -19 -109 l-24 -16 6 48 c8 58 -4 60 -29 5 -16 -36 -24
-44 -51 -46 -25 -3 -35 2 -49 23 -26 40 -4 115 33 115 12 0 14 -9 9 -45z"/>
<path d="M2388 5154 c-12 -11 4 -34 24 -34 13 0 18 6 16 17 -3 18 -29 29 -40
17z"/>
<path d="M3062 5070 c-11 -17 -10 -20 8 -20 21 0 25 7 12 27 -6 9 -11 7 -20
-7z"/>
<path d="M3437 4983 c-14 -13 -7 -33 11 -33 26 0 34 11 21 27 -13 14 -22 16
-32 6z"/>
<path d="M3596 4851 c-14 -16 -15 -19 -2 -24 9 -4 16 3 19 19 5 29 5 29 -17 5z"/>
<path d="M4215 4250 c-8 -14 3 -30 21 -30 16 0 16 2 8 24 -7 18 -20 21 -29 6z"/>
<path d="M4153 4219 c-15 -15 0 -39 23 -39 17 0 18 11 1 33 -10 14 -15 15 -24
6z"/>
<path d="M4260 4051 c0 -18 18 -21 30 -6 10 13 9 15 -9 15 -11 0 -21 -4 -21
-9z"/>
<path d="M4430 3541 c0 -19 23 -35 34 -24 14 15 5 43 -14 43 -13 0 -20 -7 -20
-19z"/>
<path d="M2775 4469 c-8 -25 6 -42 28 -34 18 7 30 32 21 46 -10 17 -43 9 -49
-12z"/>
<path d="M2694 4165 c-7 -19 -14 -50 -14 -69 l0 -34 40 21 c47 26 56 47 40 88
-17 41 -47 38 -66 -6z"/>
<path d="M3373 4173 c-26 -39 -26 -227 0 -266 21 -32 38 -34 63 -6 26 29 33
207 11 262 -19 45 -49 49 -74 10z"/>
<path d="M3160 2290 c-30 -4 -88 -13 -128 -19 l-72 -13 29 -37 c101 -127 221
-188 294 -149 44 23 120 94 143 134 27 46 24 66 -12 83 -27 12 -166 13 -254 1z"/>
<path d="M1561 3216 c-32 -34 -50 -104 -57 -225 -12 -196 24 -359 82 -381 73
-28 118 39 135 200 18 177 -5 358 -51 408 -28 30 -79 29 -109 -2z"/>
<path d="M4227 2770 c3 -11 0 -20 -6 -20 -6 0 -11 7 -11 15 0 17 -9 19 -29 6
-7 -5 -10 -14 -7 -20 4 -6 3 -11 -3 -11 -5 0 -11 5 -13 12 -3 7 -24 -6 -51
-31 -132 -122 -107 -339 49 -423 60 -32 123 -46 121 -26 -1 7 3 13 8 13 6 0 9
-6 9 -12 -5 -39 131 14 184 70 55 61 76 121 70 205 -6 77 -23 117 -75 168 -60
60 -173 99 -173 59 0 -8 -5 -15 -10 -15 -6 0 -13 7 -16 15 -4 8 -16 15 -29 15
-18 0 -22 -4 -18 -20z m137 -11 c-3 -5 -10 -7 -15 -3 -5 3 -7 10 -3 15 3 5 10
7 15 3 5 -3 7 -10 3 -15z m51 -9 c3 -5 1 -10 -4 -10 -6 0 -11 5 -11 10 0 6 2
10 4 10 3 0 8 -4 11 -10z m-169 -61 l42 -41 42 41 c23 22 45 41 49 41 3 0 42
-36 86 -80 l79 -80 -59 -60 -59 -60 -38 37 -38 37 22 23 c40 43 8 37 -37 -7
l-45 -44 -45 44 c-24 24 -48 41 -51 37 -4 -4 0 -15 9 -25 10 -10 17 -23 17
-28 0 -14 -53 -64 -68 -64 -7 0 -38 25 -69 56 l-56 55 79 80 c43 43 83 79 88
79 6 0 29 -19 52 -41z m14 -194 c11 -13 9 -20 -9 -38 l-21 -23 30 -29 30 -29
25 24 c14 13 25 30 25 38 0 12 -7 9 -25 -8 -22 -21 -27 -22 -40 -9 -13 13 -11
19 23 52 l38 37 37 -38 37 -38 -63 -62 -63 -62 -58 59 -58 59 32 41 c37 46 42
48 60 26z m-85 -185 c3 -5 1 -10 -4 -10 -6 0 -11 5 -11 10 0 6 2 10 4 10 3 0
8 -4 11 -10z m240 0 c3 -5 1 -10 -4 -10 -6 0 -11 5 -11 10 0 6 2 10 4 10 3 0
8 -4 11 -10z m-185 -20 c0 -5 -4 -10 -10 -10 -5 0 -10 5 -10 10 0 6 5 10 10
10 6 0 10 -4 10 -10z m135 0 c-3 -5 -10 -10 -16 -10 -5 0 -9 5 -9 10 0 6 7 10
16 10 8 0 12 -4 9 -10z"/>
<path d="M4139 2622 l-50 -47 35 -34 c24 -24 36 -30 36 -20 0 9 -9 24 -20 34
-20 19 -20 19 12 52 17 18 36 33 42 33 6 0 30 -19 53 -42 l43 -42 45 44 45 44
37 -36 37 -37 -23 -25 c-12 -13 -18 -26 -13 -30 5 -3 22 8 38 25 l28 30 -52
51 -52 52 -45 -44 -45 -44 -43 42 c-23 23 -46 42 -51 42 -4 0 -30 -21 -57 -48z"/>
<path d="M3594 2099 c-3 -6 -47 -38 -98 -71 -412 -271 -887 -336 -1359 -186
l-99 31 -169 -169 -169 -169 79 -37 c177 -84 434 -156 633 -177 517 -57 1061
102 1468 428 85 67 248 230 306 303 l45 58 -315 0 c-217 0 -317 -3 -322 -11z
m554 -71 c-226 -262 -512 -463 -828 -581 -417 -156 -913 -163 -1330 -18 -103
35 -250 97 -250 104 0 1 71 74 158 161 l157 157 100 -30 c182 -56 287 -72 475
-72 212 0 384 33 584 111 103 40 263 130 346 194 l45 35 298 0 299 1 -54 -62z"/>
<path d="M3530 2008 c-101 -71 -292 -167 -408 -203 -154 -49 -257 -66 -435
-72 -219 -7 -396 16 -569 76 l-55 19 -144 -144 c-116 -116 -141 -146 -129
-154 8 -6 61 -28 118 -51 274 -107 610 -157 882 -130 496 50 909 246 1253 594
59 60 107 113 107 118 0 5 -120 9 -267 8 l-268 0 -85 -61z m328 -40 c-2 -13
-10 -23 -18 -23 -8 0 -16 10 -18 23 -3 17 2 22 18 22 16 0 21 -5 18 -22z m-40
-41 c4 -21 -25 -34 -40 -19 -8 8 -8 16 2 27 16 19 34 15 38 -8z m-214 -4 c7
-17 -5 -30 -43 -52 -8 -5 -11 -13 -7 -19 4 -8 13 -5 26 8 26 26 48 25 77 -2
29 -27 31 -78 4 -102 -20 -18 -69 -24 -90 -11 -16 9 17 48 35 41 7 -3 17 1 23
8 8 10 7 17 -5 27 -14 11 -19 10 -36 -14 -11 -15 -25 -27 -31 -27 -14 1 -69
78 -65 90 4 13 81 69 94 69 7 1 15 -7 18 -16z m166 -43 c0 -13 -7 -20 -20 -20
-13 0 -20 7 -20 20 0 13 7 20 20 20 13 0 20 -7 20 -20z m-282 -124 c43 -75 45
-79 27 -92 -10 -8 -21 -14 -24 -14 -3 0 -19 25 -36 56 -16 30 -41 61 -54 67
-14 7 -26 17 -28 22 -3 11 47 46 61 42 5 -2 29 -38 54 -81z m-146 2 c47 -39
65 -129 32 -162 -22 -22 -59 -30 -83 -17 -27 15 -61 82 -61 120 0 55 70 92
112 59z m-161 -80 c11 -21 8 -69 -6 -100 -6 -16 -3 -17 24 -12 27 6 31 4 31
-14 0 -16 -13 -25 -62 -41 -34 -11 -63 -20 -64 -18 -10 10 -5 39 14 79 13 26
22 55 20 64 -5 26 -28 29 -28 5 0 -12 -4 -21 -9 -21 -5 0 -16 -3 -25 -6 -12
-5 -16 1 -16 23 0 63 93 94 121 41z m-1176 -24 c0 -10 -8 -20 -17 -22 -18 -3
-26 27 -11 42 12 11 28 0 28 -20z m271 15 c34 -9 44 -16 44 -31 0 -18 -5 -19
-34 -14 -25 5 -35 3 -39 -8 -4 -10 3 -17 24 -21 44 -10 35 -41 -10 -37 -26 2
-32 -1 -29 -15 2 -9 14 -20 28 -23 23 -5 26 -12 22 -39 -2 -9 -96 9 -107 21
-6 6 21 152 32 171 6 10 16 9 69 -4z m-206 -39 c0 -13 -7 -20 -20 -20 -13 0
-20 7 -20 20 0 13 7 20 20 20 13 0 20 -7 20 -20z m398 -6 c24 -16 30 -54 9
-54 -7 0 -22 7 -33 15 -24 18 -34 19 -34 3 1 -7 15 -22 33 -33 38 -24 49 -71
21 -92 -27 -20 -81 -16 -104 7 -25 25 -26 50 -1 50 11 0 26 -7 35 -15 17 -17
36 -20 36 -5 0 6 -16 20 -35 31 -19 12 -38 32 -41 45 -13 53 62 85 114 48z
m-340 -17 c3 -12 -3 -17 -22 -17 -25 0 -35 18 -19 34 12 12 38 2 41 -17z m711
9 c52 -28 66 -97 28 -142 -18 -21 -37 -29 -78 -34 -30 -4 -57 -5 -60 -1 -4 3
-9 45 -12 93 -6 84 -5 87 16 91 46 9 79 7 106 -7z m-159 -16 c0 -14 -7 -20
-24 -20 -23 0 -25 -4 -31 -76 -7 -69 -9 -75 -29 -72 -20 3 -21 8 -18 76 4 72
3 72 -22 72 -19 0 -26 5 -26 20 0 18 7 20 75 20 68 0 75 -2 75 -20z m314 -99
c10 -16 -5 -41 -24 -41 -23 0 -34 16 -26 35 6 16 42 20 50 6z"/>
<path d="M3284 1705 c-7 -18 20 -85 35 -85 5 0 14 7 21 15 10 12 8 21 -7 46
-22 38 -41 47 -49 24z"/>
<path d="M2770 1530 c0 -51 7 -58 39 -40 42 22 31 90 -14 90 -23 0 -25 -3 -25
-50z"/>
<path d="M813 1798 c-17 -6 -46 -25 -64 -44 -26 -27 -32 -42 -35 -86 l-4 -53
15 46 c18 56 70 105 120 115 20 3 59 4 88 2 51 -5 51 -5 20 8 -46 20 -103 24
-140 12z"/>
<path d="M4360 1797 l-35 -11 65 -6 c36 -3 80 -13 97 -23 36 -19 72 -81 74
-124 l1 -28 10 32 c9 27 7 40 -13 80 -14 27 -37 55 -54 65 -41 23 -102 30
-145 15z"/>
<path d="M1606 1334 c24 -36 50 -88 59 -116 20 -68 19 -161 -1 -200 -53 -103
75 -231 198 -198 56 16 98 59 98 102 -1 66 -66 109 -128 82 -35 -14 -52 -55
-32 -79 16 -19 40 -19 40 0 0 8 5 15 11 15 6 0 9 -10 7 -22 -5 -34 -60 -38
-82 -6 -24 34 -20 72 13 107 48 52 123 39 169 -29 23 -34 26 -71 8 -110 -5
-12 5 -15 58 -15 57 0 69 -4 103 -31 54 -43 83 -105 83 -177 0 -61 -9 -87 -42
-124 l-20 -22 21 6 c29 7 79 -15 86 -38 8 -25 -2 -39 -28 -39 -20 1 -21 1 -4
11 14 8 16 14 6 25 -31 37 -109 -4 -109 -58 0 -39 57 -84 125 -99 66 -15 138
-4 211 32 48 22 153 115 119 104 -91 -30 -180 -6 -231 61 -25 32 -29 46 -29
101 0 59 2 65 37 99 31 32 44 38 93 42 65 5 100 -9 121 -50 19 -37 18 -72 -5
-92 -22 -20 -55 -11 -45 13 17 40 15 67 -7 86 l-22 20 12 -23 c23 -44 -11 -73
-37 -32 -17 28 -58 43 -83 30 -10 -6 -26 -24 -34 -40 -49 -95 32 -205 150
-204 48 1 126 31 140 53 3 6 14 2 25 -9 11 -11 44 -26 74 -35 44 -13 62 -14
99 -4 89 22 144 110 114 181 -29 69 -97 84 -127 28 -6 -11 -17 -20 -25 -20
-18 0 -20 41 -2 59 10 11 8 11 -10 2 -28 -14 -37 -44 -23 -71 12 -23 7 -50
-10 -50 -19 0 -50 40 -50 66 0 16 13 39 34 60 30 30 40 34 86 34 93 0 154 -59
152 -146 -1 -118 -120 -199 -240 -165 -44 13 -40 0 13 -43 64 -53 146 -88 219
-93 117 -7 222 63 196 131 -12 32 -50 51 -84 42 -30 -7 -35 -32 -8 -40 9 -2 4
-4 -12 -3 -39 3 -43 21 -11 53 20 19 34 25 56 22 26 -4 27 -3 15 11 -63 73
-58 207 12 284 33 37 92 60 144 55 47 -5 48 -5 41 21 -23 85 32 161 117 161
70 0 119 -101 71 -144 -26 -24 -76 -18 -76 8 0 11 6 21 13 24 8 2 10 -2 6 -13
-5 -13 -2 -16 17 -13 19 2 25 10 27 35 6 56 -68 85 -123 49 -108 -71 8 -213
143 -175 53 15 105 63 122 113 9 30 8 41 -7 73 -12 26 -18 61 -18 113 0 63 5
85 32 142 18 38 45 85 60 105 l28 37 -45 -26 c-227 -131 -646 -256 -933 -278
-313 -23 -737 74 -1086 249 l-99 50 44 -65z m107 -33 c171 -93 450 -181 678
-215 353 -53 778 19 1129 192 135 66 141 68 115 47 -33 -27 -253 -130 -354
-166 -51 -18 -102 -40 -112 -48 -28 -24 -48 -82 -38 -108 11 -29 49 -31 49 -4
0 31 19 35 31 7 22 -48 -30 -75 -79 -40 -24 17 -30 70 -12 105 19 34 -6 20
-53 -30 -68 -73 -90 -174 -41 -192 26 -9 68 10 72 35 3 14 0 17 -17 11 -17 -5
-21 -2 -21 14 0 40 46 37 56 -4 13 -53 -33 -95 -104 -95 -53 0 -82 34 -82 95
0 53 27 94 100 154 l55 44 -35 -7 c-19 -3 -52 -9 -72 -13 -35 -5 -38 -8 -38
-39 0 -29 -5 -37 -34 -51 -28 -13 -44 -14 -85 -6 -28 6 -51 9 -51 7 0 -2 11
-20 25 -40 31 -45 33 -96 5 -124 -45 -45 -126 -2 -98 53 11 21 38 23 38 2 0
-8 -7 -15 -15 -15 -20 0 -19 -17 3 -28 77 -40 42 116 -41 182 l-38 30 -36 -19
c-72 -39 -126 -156 -90 -193 13 -13 19 -13 31 -2 20 16 20 30 0 30 -20 0 -13
24 8 28 21 4 32 -32 18 -58 -23 -44 -104 -34 -116 15 -8 33 0 64 31 109 21 31
22 37 8 32 -105 -29 -176 -1 -161 63 2 9 -17 18 -57 27 -33 8 -71 16 -85 20
-18 4 -13 -3 20 -24 102 -66 155 -152 131 -214 -23 -61 -106 -78 -160 -32 -36
30 -40 63 -11 89 16 15 22 15 35 5 22 -19 19 -43 -5 -37 -25 6 -33 -5 -17 -26
12 -16 27 -20 59 -18 58 4 36 121 -38 196 -25 26 -47 45 -49 43 -3 -2 0 -21 6
-41 16 -59 -23 -106 -77 -93 -18 5 -24 13 -24 36 0 16 5 32 11 36 14 8 29 -14
22 -33 -7 -18 31 -17 47 2 16 20 -1 83 -29 109 -10 9 -72 37 -137 62 -119 44
-302 130 -339 158 -36 27 -6 17 68 -23z"/>
<path d="M2410 1049 c0 -11 -7 -19 -16 -19 -8 0 -12 5 -9 10 3 6 -1 10 -9 10
-26 0 -18 -30 12 -41 34 -13 100 -5 155 20 l42 18 -35 6 c-19 3 -59 8 -87 10
-46 4 -53 2 -53 -14z"/>
<path d="M2788 1060 c-42 -3 -79 -8 -83 -12 -4 -3 24 -16 62 -29 50 -16 80
-20 107 -15 36 7 57 29 41 44 -4 4 -10 1 -12 -5 -7 -19 -31 -16 -35 5 -3 15
-12 16 -80 12z"/>
<path d="M2982 995 c-55 -62 -52 -145 6 -166 l22 -8 -21 29 c-25 33 -22 78 9
141 11 22 18 39 17 39 -2 0 -17 -16 -33 -35z"/>
<path d="M2289 985 c25 -48 27 -111 4 -137 -26 -29 -7 -33 21 -5 42 42 31 113
-24 162 l-22 20 21 -40z"/>
<path d="M2785 886 c0 -31 1 -56 3 -56 1 0 7 11 12 25 7 18 6 35 -3 56 -12 29
-12 29 -12 -25z"/>
<path d="M2486 914 c-8 -22 -8 -62 2 -67 4 -3 7 15 7 39 1 49 0 51 -9 28z"/>
<path d="M1631 1154 c-1 -53 -7 -82 -25 -118 -25 -50 -15 -57 18 -13 23 31 32
117 18 167 -9 32 -10 29 -11 -36z"/>
<path d="M3636 1156 c-10 -67 3 -123 34 -151 25 -22 39 -12 18 12 -21 24 -30
56 -38 133 l-6 65 -8 -59z"/>
<path d="M1631 858 c-2 -151 114 -286 281 -327 90 -22 189 18 218 89 18 43 7
116 -20 145 -46 49 -119 56 -160 15 -23 -23 -26 -72 -5 -90 17 -14 38 -3 31
17 -4 9 -1 13 6 11 20 -7 21 -48 2 -69 -61 -68 -156 45 -110 132 l13 26 -41
-10 c-28 -6 -55 -5 -84 2 -45 13 -109 62 -122 95 -6 15 -9 5 -9 -36z"/>
<path d="M3627 870 c-10 -17 -41 -40 -72 -56 -47 -22 -63 -26 -106 -20 -48 7
-50 6 -40 -13 46 -86 -45 -195 -109 -131 -21 21 -23 29 -14 54 9 23 24 20 24
-5 0 -27 21 -20 39 13 13 23 13 29 -2 51 -9 15 -34 31 -55 38 -72 21 -152 -42
-152 -121 0 -73 49 -128 135 -151 49 -13 143 7 209 46 90 53 158 156 172 261
7 60 -5 75 -29 34z"/>
<path d="M1975 848 c-40 -14 -75 -46 -91 -86 -12 -27 -12 -37 0 -67 10 -22 24
-37 40 -41 36 -9 53 5 24 20 -61 30 -56 107 9 147 59 37 136 15 187 -54 31
-42 28 -123 -8 -177 -40 -61 -97 -84 -195 -77 -120 7 -206 57 -284 162 -23 31
-28 34 -22 15 39 -132 165 -220 318 -221 99 -2 187 43 223 113 18 35 20 110 4
153 -16 44 -79 104 -120 115 -41 12 -46 12 -85 -2z"/>
<path d="M3216 845 c-115 -40 -164 -195 -92 -290 126 -165 471 -79 520 130 6
26 3 23 -25 -19 -63 -94 -179 -156 -294 -156 -75 0 -109 11 -148 48 -42 39
-57 75 -57 130 0 108 110 183 200 137 57 -29 76 -87 44 -133 -8 -12 -24 -22
-35 -22 -11 0 -17 -4 -14 -10 10 -16 51 -11 68 8 79 87 -45 219 -167 177z"/>
<path d="M2543 651 c-6 -18 -7 -31 -2 -31 12 0 22 24 17 45 -2 12 -7 7 -15
-14z"/>
<path d="M2720 660 c0 -21 17 -46 25 -38 4 4 0 17 -9 30 -10 14 -16 17 -16 8z"/>
<path d="M2516 370 c-89 -67 -250 -95 -323 -57 -18 10 -33 15 -33 13 0 -10 59
-36 105 -46 89 -20 204 19 274 94 31 33 26 32 -23 -4z"/>
<path d="M2730 387 c0 -4 24 -24 53 -46 94 -71 211 -87 297 -39 19 10 26 16
15 12 -60 -20 -100 -24 -156 -15 -59 10 -142 44 -186 77 -13 9 -23 14 -23 11z"/>
</g>
</svg>
