<svg width="80" height="81" viewBox="0 0 80 81" fill="none" xmlns="http://www.w3.org/2000/svg">
<circle cx="40" cy="40.2571" r="40" fill="#319F43"/>
<path d="M15.2173 40.1385C15.2159 44.7 16.4077 49.1531 18.6733 53.0783L15 66.4901L28.7254 62.8913C32.5071 64.9532 36.765 66.0403 41.0977 66.042H41.1089C55.378 66.042 66.9939 54.4297 67 40.1592C67.0024 33.2432 64.3114 26.7397 59.4234 21.8475C54.5348 16.9558 48.0348 14.2599 41.1089 14.2571C26.8373 14.2571 15.223 25.8677 15.2173 40.1385ZM23.3913 52.4023L22.8788 51.5888C20.7245 48.1633 19.5874 44.2048 19.589 40.1401C19.5935 28.2786 29.2468 18.6283 41.117 18.6283C46.8654 18.6308 52.2677 20.8716 56.3311 24.9374C60.3942 29.0035 62.63 34.4087 62.6285 40.1575C62.6233 52.019 52.9697 61.6705 41.1089 61.6705H41.1003C37.2383 61.6685 33.4507 60.6313 30.1474 58.6714L29.3613 58.2052L21.2164 60.3407L23.3913 52.4023Z" fill="url(#paint0_linear_821_781)"/>
<path d="M34.638 29.3184C34.1533 28.2412 33.6433 28.2195 33.1824 28.2006C32.805 28.1843 32.3735 28.1856 31.9425 28.1856C31.5111 28.1856 30.8101 28.3479 30.2176 28.9948C29.6244 29.6424 27.9531 31.2073 27.9531 34.39C27.9531 37.5728 30.2714 40.6489 30.5946 41.081C30.9181 41.5122 35.07 48.2527 41.6456 50.8458C47.1105 53.0007 48.2226 52.5721 49.4086 52.4641C50.5949 52.3564 53.2363 50.8996 53.7752 49.389C54.3145 47.8785 54.3145 46.5838 54.1528 46.3133C53.9911 46.0437 53.5597 45.8818 52.9127 45.5584C52.2658 45.2351 49.085 43.6698 48.4921 43.4539C47.899 43.2381 47.4678 43.1305 47.0363 43.7783C46.6049 44.425 45.366 45.8818 44.9884 46.3133C44.6112 46.7457 44.2336 46.7995 43.5868 46.476C42.9395 46.1514 40.856 45.4691 38.3842 43.2654C36.461 41.5506 35.1626 39.433 34.7852 38.7852C34.4078 38.1385 34.7448 37.7879 35.0692 37.4655C35.3599 37.1757 35.7164 36.7101 36.0401 36.3325C36.3627 35.9547 36.4704 35.6851 36.6861 35.2537C36.902 34.8219 36.7939 34.4441 36.6325 34.1205C36.4704 33.7969 35.2132 30.5975 34.638 29.3184Z" fill="white"/>
<defs>
<linearGradient id="paint0_linear_821_781" x1="2615" y1="5237.56" x2="2615" y2="14.2571" gradientUnits="userSpaceOnUse">
<stop stop-color="#F9F9F9"/>
<stop offset="1" stop-color="white"/>
</linearGradient>
</defs>
</svg>
