<svg width="80" height="81" viewBox="0 0 80 81" fill="none" xmlns="http://www.w3.org/2000/svg">
<g clip-path="url(#clip0_821_770)">
<path d="M22.008 66.0011V39.3518L13.7432 31.7908L6.33203 27.595V61.2982C6.33203 63.9004 8.44032 66.0011 11.0349 66.0011H22.008Z" fill="#4285F4"/>
<path d="M59.6289 66.0011H70.602C73.2044 66.0011 75.3049 63.8926 75.3049 61.2982V27.5952L66.9105 32.401L59.6289 39.3518V66.0011Z" fill="#34A853"/>
<path d="M22.0074 39.3518L20.8828 28.9391L22.0074 18.9731L40.8185 33.0816L59.6295 18.9731L60.8875 28.401L59.6295 39.3518L40.8185 53.4602L22.0074 39.3518Z" fill="#EA4335"/>
<path d="M59.6289 18.9731V39.3517L75.3049 27.5949V21.3244C75.3049 15.5088 68.6661 12.1934 64.0185 15.6812L59.6289 18.9731Z" fill="#FBBC04"/>
<path d="M6.33203 27.595L13.5417 33.0024L22.008 39.3518V18.9732L17.6185 15.6813C12.9627 12.1933 6.33203 15.5089 6.33203 21.3243V27.595Z" fill="#C5221F"/>
</g>
<defs>
<clipPath id="clip0_821_770">
<rect width="68.9741" height="52" fill="white" transform="translate(6.33203 14.2571)"/>
</clipPath>
</defs>
</svg>
