<svg width="93" height="86" viewBox="0 0 93 86" fill="none" xmlns="http://www.w3.org/2000/svg">
<path d="M82.5175 27.7741C86.3906 29.0184 89.0895 32.7163 89.0895 36.9618V55.7402C89.0895 60.7175 85.3785 64.9411 80.4145 65.3485C78.9248 65.4683 77.4352 65.5734 75.9455 65.664V79.2067L62.8015 66.0627C56.8691 66.0627 50.9981 65.8246 45.1885 65.3485C43.9234 65.2482 42.6927 64.8872 41.5739 64.2882M82.5175 27.7741C81.8418 27.5512 81.1415 27.4115 80.432 27.3579C68.6985 26.383 56.9044 26.383 45.1709 27.3579C40.2156 27.7698 36.5134 31.989 36.5134 36.9618V55.7402C36.5134 59.4074 38.5288 62.6628 41.5739 64.2882M82.5175 27.7741V19.5635C82.5175 12.4613 77.4702 6.30554 70.425 5.38984C61.3592 4.21528 52.227 3.62695 43.0854 3.62854C33.8189 3.62854 24.6925 4.22879 15.7458 5.38984C8.70063 6.30554 3.65332 12.4613 3.65332 19.5635V46.8417C3.65332 53.9439 8.70063 60.0997 15.7458 61.0154C18.2724 61.3454 20.8136 61.6288 23.3694 61.8654V82.4927L41.5739 64.2882" stroke="#FF364D" stroke-width="6.57202" stroke-linecap="round" stroke-linejoin="round"/>
</svg>
