<svg width="94" height="77" viewBox="0 0 94 77" fill="none" xmlns="http://www.w3.org/2000/svg">
<path d="M68.3072 72.9996C73.0963 72.9996 76.9786 69.1173 76.9786 64.3282C76.9786 59.5391 73.0963 55.6567 68.3072 55.6567C63.5181 55.6567 59.6357 59.5391 59.6357 64.3282C59.6357 69.1173 63.5181 72.9996 68.3072 72.9996Z" stroke="#FF364D" stroke-width="6.50359" stroke-linecap="round" stroke-linejoin="round"/>
<path d="M24.95 72.9996C29.7391 72.9996 33.6215 69.1173 33.6215 64.3282C33.6215 59.5391 29.7391 55.6567 24.95 55.6567C20.1609 55.6567 16.2786 59.5391 16.2786 64.3282C16.2786 69.1173 20.1609 72.9996 24.95 72.9996Z" stroke="#FF364D" stroke-width="6.50359" stroke-linecap="round" stroke-linejoin="round"/>
<path d="M16.2787 64.2073C11.5224 63.9732 8.56107 63.2664 6.44523 61.1549C4.3294 59.0434 3.62701 56.0778 3.39289 51.3215M33.6216 64.3287H59.6359M76.9788 64.2073C81.7351 63.9732 84.6964 63.2664 86.8122 61.1549C89.986 57.9768 89.986 52.8694 89.986 42.6501V33.9786H69.6081C66.3779 33.9786 64.7651 33.9786 63.46 33.5537C62.1586 33.1308 60.9758 32.406 60.0082 31.4384C59.0407 30.4708 58.3158 29.288 57.8929 27.9866C57.468 26.6816 57.468 25.0687 57.468 21.8386C57.468 16.9956 57.468 14.5762 56.8307 12.6165C56.1964 10.6644 55.1091 8.89022 53.6577 7.43886C52.2064 5.9875 50.4321 4.90022 48.4801 4.26589C46.5203 3.62854 44.101 3.62854 39.258 3.62854H3.27148M3.27148 20.9714H16.2787H29.2858M3.27148 33.9786H20.6144" stroke="#FF364D" stroke-width="6.50359" stroke-linecap="round" stroke-linejoin="round"/>
<path d="M57.4679 12.2999H65.3632C71.6761 12.2999 74.8281 12.2999 77.3949 13.8348C79.966 15.3653 81.4618 18.1445 84.4534 23.7029L89.9858 33.9785" stroke="#FF364D" stroke-width="6.50359" stroke-linecap="round" stroke-linejoin="round"/>
</svg>
