<svg width="22" height="16" viewBox="0 0 22 16" fill="none" xmlns="http://www.w3.org/2000/svg">
<path d="M9.18696 15.5906C9.46026 15.3173 9.59144 14.987 9.58051 14.5999C9.56867 14.2127 9.4261 13.8825 9.1528 13.6092L5.29248 9.74886L20.5288 9.74885C20.916 9.74885 21.2407 9.61767 21.5031 9.35531C21.7645 9.09385 21.8953 8.76954 21.8953 8.38237C21.8953 7.9952 21.7645 7.67043 21.5031 7.40807C21.2407 7.14661 20.916 7.01589 20.5288 7.01589L5.29248 7.01589L9.18696 3.12141C9.46026 2.84811 9.59691 2.52334 9.59691 2.1471C9.59691 1.77178 9.46026 1.44746 9.18696 1.17417C8.91366 0.90087 8.5889 0.764222 8.21266 0.764222C7.83733 0.764222 7.51302 0.90087 7.23972 1.17417L0.988057 7.42583C0.851409 7.56248 0.754388 7.71052 0.696995 7.86994C0.640513 8.02936 0.612273 8.20017 0.612273 8.38237C0.612273 8.56457 0.640513 8.73538 0.696995 8.8948C0.754388 9.05423 0.851409 9.20226 0.988057 9.33891L7.27389 15.6247C7.52441 15.8753 7.83733 16.0005 8.21266 16.0005C8.5889 16.0005 8.91367 15.8639 9.18696 15.5906Z" fill="#FF364D"/>
</svg>
