<svg width="16" height="16" viewBox="0 0 16 16" fill="none" xmlns="http://www.w3.org/2000/svg">
<g clip-path="url(#clip0_1312_1548)">
<g clip-path="url(#clip1_1312_1548)">
<path d="M6.76351 1.62448L5.08351 5.17948L1.33351 5.74948C1.13351 5.76948 0.96601 5.86948 0.83101 6.04948C0.69601 6.22948 0.63101 6.43448 0.63601 6.66448C0.64101 6.89448 0.72351 7.08948 0.88351 7.24948L3.58351 9.99448L2.95351 13.9395C2.91351 14.1595 2.95351 14.357 3.07351 14.532C3.19351 14.707 3.35601 14.822 3.56101 14.877C3.76601 14.932 3.95851 14.9095 4.13851 14.8095L7.51351 13.0545L10.8885 14.8095C11.0885 14.9095 11.291 14.932 11.496 14.877C11.701 14.822 11.8585 14.707 11.9685 14.532C12.0785 14.357 12.1135 14.1595 12.0735 13.9395L11.4585 9.99448L14.1435 7.24948C14.3035 7.08948 14.386 6.89948 14.391 6.67948C14.396 6.45948 14.3335 6.25948 14.2035 6.07948C14.0735 5.89948 13.9085 5.78948 13.7085 5.74948L9.95851 5.17948L8.26351 1.62448C8.16351 1.42448 8.01351 1.28698 7.81351 1.21198C7.61351 1.13698 7.41351 1.13698 7.21351 1.21198C7.01351 1.28698 6.86351 1.42448 6.76351 1.62448Z" fill="#F0AD4E"/>
</g>
</g>
<defs>
<clipPath id="clip0_1312_1548">
<rect width="15.025" height="15" fill="white" transform="translate(0.000976562 0.5)"/>
</clipPath>
<clipPath id="clip1_1312_1548">
<rect width="15.025" height="15" fill="white" transform="matrix(1 0 0 -1 0.000976562 15.5)"/>
</clipPath>
</defs>
</svg>
