<svg width="146" height="145" viewBox="0 0 146 145" fill="none" xmlns="http://www.w3.org/2000/svg">
<path d="M12.5834 132.917C15.5036 125.465 17.4429 117.788 18.4015 109.886C19.3601 101.983 19.9381 94.0526 20.1355 86.0937C16.2084 84.5833 12.962 82.066 10.3963 78.5416C7.83064 75.0173 6.54578 70.9896 6.54175 66.4583V54.375C18.1216 50.5486 29.929 44.7083 41.964 36.8541C53.999 29 64.3444 20.743 73.0001 12.0833C81.6598 20.743 92.0072 29 104.042 36.8541C116.077 44.7083 127.883 50.5486 139.458 54.375V66.4583C139.458 70.9896 138.174 75.0173 135.604 78.5416C133.034 82.066 129.788 84.5833 125.865 86.0937C126.066 94.0486 126.646 101.979 127.605 109.886C128.563 117.792 130.501 125.469 133.417 132.917H12.5834ZM36.1459 54.375H109.854C102 49.9444 94.9273 45.389 88.6359 40.7087C82.3445 36.0285 77.1326 31.9241 73.0001 28.3958C68.8716 31.9201 63.6597 36.0244 57.3642 40.7087C51.0688 45.393 43.9961 49.9485 36.1459 54.375ZM88.1042 75.5208C90.6216 75.5208 92.7624 74.6407 94.5265 72.8806C96.2907 71.1205 97.1708 68.9797 97.1667 66.4583H79.0417C79.0417 68.9757 79.9238 71.1164 81.688 72.8806C83.4522 74.6448 85.5909 75.5248 88.1042 75.5208ZM57.8959 75.5208C60.4133 75.5208 62.554 74.6407 64.3182 72.8806C66.0824 71.1205 66.9624 68.9797 66.9584 66.4583H48.8334C48.8334 68.9757 49.7155 71.1164 51.4797 72.8806C53.2438 74.6448 55.3826 75.5248 57.8959 75.5208ZM27.6876 75.5208C30.2049 75.5208 32.3457 74.6407 34.1099 72.8806C35.874 71.1205 36.7541 68.9797 36.7501 66.4583H18.6251C18.6251 68.9757 19.5072 71.1164 21.2713 72.8806C23.0355 74.6448 25.1742 75.5248 27.6876 75.5208ZM28.5938 120.833H44.7553C45.6615 114.792 46.3664 108.8 46.8699 102.859C47.3733 96.9184 47.7761 90.9271 48.0782 84.8854C47.172 84.3819 46.2657 83.8523 45.3595 83.2964C44.4532 82.7406 43.5973 82.0619 42.7917 81.2604C41.2813 82.7708 39.6461 84.0053 37.8859 84.9639C36.1258 85.9226 34.2367 86.6516 32.2188 87.151C32.0174 92.8906 31.665 98.5557 31.1615 104.146C30.6581 109.737 29.8022 115.299 28.5938 120.833ZM56.9897 120.833H89.0105C88.2049 115.295 87.5766 109.757 87.1255 104.219C86.6744 98.6805 86.2958 93.092 85.9897 87.4531C83.3716 87.2517 80.9811 86.6234 78.8182 85.5681C76.6553 84.5128 74.7159 83.1273 73.0001 81.4114C71.2883 83.1233 69.3006 84.5088 67.0369 85.5681C64.7733 86.6274 62.4312 87.2558 60.0105 87.4531C59.7084 93.092 59.3318 98.6805 58.8807 104.219C58.4296 109.757 57.7992 115.295 56.9897 120.833ZM101.245 120.833H117.406C116.198 115.295 115.342 109.733 114.839 104.146C114.335 98.5597 113.983 92.8946 113.781 87.151C111.767 86.6476 109.854 85.9165 108.042 84.9579C106.229 83.9993 104.618 82.7668 103.208 81.2604C102.403 82.066 101.547 82.7467 100.641 83.3025C99.7345 83.8583 98.8282 84.386 97.9219 84.8854C98.224 90.9271 98.653 96.9184 99.2088 102.859C99.7646 108.8 100.443 114.792 101.245 120.833ZM118.313 75.5208C120.83 75.5208 122.971 74.6407 124.735 72.8806C126.499 71.1205 127.379 68.9797 127.375 66.4583H109.25C109.25 68.9757 110.132 71.1164 111.896 72.8806C113.66 74.6448 115.799 75.5248 118.313 75.5208Z" fill="white"/>
</svg>
