<svg width="75" height="87" viewBox="0 0 75 87" fill="none" xmlns="http://www.w3.org/2000/svg">
<path d="M35.1216 34.6283C37.3057 34.6276 39.4094 35.4525 41.0108 36.9376C42.6123 38.4226 43.5933 40.4582 43.7571 42.6361L43.7788 43.2854V77.914C43.7794 80.0981 42.9546 82.2017 41.4695 83.8032C39.9844 85.4047 37.9488 86.3857 35.7709 86.5495L35.1216 86.5711H9.15018C6.96609 86.5718 4.86245 85.747 3.26096 84.2619C1.65947 82.7768 0.678493 80.7412 0.514686 78.5633L0.493042 77.914V43.2854C0.492351 41.1013 1.31723 38.9977 2.80232 37.3962C4.28741 35.7947 6.32296 34.8137 8.5009 34.6499L9.15018 34.6283H35.1216ZM65.4216 47.614C67.6057 47.6133 69.7094 48.4382 71.3108 49.9233C72.9123 51.4084 73.8933 53.4439 74.0571 55.6219L74.0788 56.2711V77.914C74.0794 80.0981 73.2546 82.2017 71.7695 83.8032C70.2844 85.4047 68.2488 86.3857 66.0709 86.5495L65.4216 86.5711H50.1201C51.4401 84.2828 52.2189 81.7228 52.3969 79.087L52.4359 77.914V47.614H65.4216ZM55.3101 17.7036C57.9721 18.9242 60.4221 21.1101 62.2055 23.5861C63.9802 26.0534 65.4216 29.2652 65.4216 32.7064C65.4216 39.4893 59.4179 43.2854 54.2842 43.2854C50.237 43.2854 46.6832 40.4719 44.9951 37.2254C43.9986 35.3466 43.6027 33.2072 43.861 31.0962C44.1597 28.789 45.2591 26.6334 47.0988 24.8197C47.9255 23.9973 48.3454 23.4779 48.6138 23.0017C48.8562 22.5819 49.0813 22.0148 49.2284 21.0192C49.325 20.3541 49.5751 19.7205 49.959 19.1688C50.3429 18.6171 50.85 18.1623 51.4401 17.8406C52.0302 17.5189 52.6872 17.339 53.3589 17.3152C54.0306 17.2914 54.6987 17.4244 55.3101 17.7036ZM22.387 0.345989C25.6464 1.74412 28.7413 4.30663 31.0268 7.28036C33.295 10.2368 35.1216 14.0719 35.1216 18.1537C35.1216 26.1183 27.6981 30.2997 21.716 30.2997C17.1148 30.2997 12.7948 27.2524 10.6652 23.4129C9.43008 21.2413 8.9348 18.7269 9.25407 16.2492C9.622 13.5568 10.9898 11.0592 13.245 8.9685C14.3921 7.908 15.037 7.17648 15.4699 6.46226C15.8681 5.80865 16.1971 4.99055 16.4049 3.66168C16.5066 3.00986 16.7559 2.3899 17.1338 1.84918C17.5117 1.30845 18.0082 0.86126 18.5854 0.541767C19.1626 0.222275 19.8051 0.0389347 20.464 0.00575372C21.1229 -0.0274273 21.7806 0.0904295 22.387 0.350319" fill="#4B4B4B"/>
</svg>
