<svg width="121" height="121" viewBox="0 0 121 121" fill="none" xmlns="http://www.w3.org/2000/svg">
<path d="M117.169 86.0188C117.017 41.8438 79.493 4.4 35.2261 4.25938L32.4961 4.25L31.8398 6.90125L6.06234 111.151L4.67859 116.75L10.2755 115.355L114.535 89.4031L117.179 88.7431L117.169 86.0188ZM65.0742 98.135C63.4842 93.8769 59.903 90.2937 54.5198 91.6588C50.0742 92.7838 47.078 97.9606 48.2723 102.316L9.43734 111.984L32.0986 20.33C67.3673 25.6813 95.7211 54.0275 101.084 89.1706L65.0742 98.135Z" fill="#4B4B4B"/>
<path d="M28.9111 76.6288C30.3285 76.6342 31.7328 76.3585 33.043 75.8178C34.3532 75.2772 35.5432 74.4822 36.5443 73.4788C37.5469 72.48 38.3419 71.2926 38.8835 69.9851C39.4251 68.6776 39.7025 67.2759 39.6999 65.8607C39.7039 64.4461 39.427 63.0448 38.8853 61.738C38.3436 60.4313 37.5479 59.2451 36.5443 58.2482C35.7361 57.4438 34.3168 57.44 33.5124 58.2482C33.3138 58.4468 33.1563 58.6826 33.0489 58.9422C32.9415 59.2017 32.8864 59.4799 32.8865 59.7607C32.8867 60.0416 32.9422 60.3197 33.0499 60.5791C33.1577 60.8385 33.3154 61.0741 33.5143 61.2725C34.7386 62.4932 35.4155 64.1282 35.4155 65.8625C35.4155 67.5969 34.7443 69.23 33.518 70.4507C31.058 72.8994 26.7643 72.8994 24.3136 70.4544C23.9069 70.0621 23.3638 69.8429 22.7986 69.8429C22.2335 69.8429 21.6904 70.0621 21.2836 70.4544C20.8837 70.8554 20.6593 71.3988 20.6597 71.9651C20.66 72.5315 20.8851 73.0745 21.2855 73.475C22.2841 74.4799 23.4726 75.2762 24.7817 75.8176C26.0908 76.359 27.4945 76.6347 28.9111 76.6288ZM60.0305 47.7163C59.7145 49.0475 59.7062 50.4332 60.0061 51.7682C60.3883 53.4628 61.2394 55.0158 62.4622 56.2499C63.6849 57.4839 65.2301 58.3492 66.9211 58.7469C67.4222 58.8606 67.9479 58.7719 68.384 58.5002C68.82 58.2284 69.1312 57.7956 69.2499 57.2957C69.3496 56.7964 69.2547 56.2779 68.9845 55.8463C68.7144 55.4148 68.2894 55.1028 67.7968 54.9744C65.0386 54.335 63.1561 51.3725 63.8086 48.59C63.9674 47.9087 64.2589 47.2654 64.6663 46.6968C65.0738 46.1282 65.5893 45.6454 66.1834 45.2761C66.7775 44.9068 67.4386 44.6581 68.1288 44.5444C68.8191 44.4306 69.5249 44.454 70.2062 44.6132C70.7105 44.7294 71.2336 44.645 71.6705 44.3694C72.1093 44.0957 72.4186 43.6663 72.5311 43.16C72.5968 42.8788 72.6005 42.5882 72.5387 42.305C72.4579 41.9491 72.2789 41.623 72.022 41.3638C71.7651 41.1046 71.4407 40.9227 71.0855 40.8388C69.9073 40.5617 68.6857 40.5216 67.4918 40.7208C66.2979 40.9201 65.1555 41.3547 64.1311 41.9994C63.1022 42.6322 62.2096 43.4637 61.5056 44.4452C60.8015 45.4268 60.3001 46.5388 60.0305 47.7163ZM77.1343 80.6732C75.8817 80.3329 74.5684 80.2797 73.2924 80.5175C71.6766 80.8192 70.178 81.5687 68.9674 82.6805C67.7567 83.7924 66.8827 85.2219 66.4449 86.8063C66.3828 87.0387 66.3672 87.2811 66.3988 87.5196C66.4304 87.7581 66.5087 87.988 66.6292 88.1963C66.7497 88.4045 66.91 88.587 67.101 88.7333C67.292 88.8795 67.5099 88.9867 67.7424 89.0488C68.2115 89.1627 68.7065 89.0921 69.1251 88.8517C69.5438 88.6114 69.8542 88.2195 69.9924 87.7569C70.6918 85.1769 73.5624 83.5044 76.1724 84.2132C76.8128 84.3834 77.413 84.679 77.9383 85.0829C78.4636 85.4869 78.9035 85.9911 79.2324 86.5663C79.9018 87.7325 80.0818 89.0882 79.7312 90.3838C79.6496 90.6832 79.6455 90.9984 79.7194 91.2998C79.7933 91.6012 79.9427 91.8788 80.1535 92.1065C80.3643 92.3342 80.6296 92.5045 80.9244 92.6013C81.2193 92.6982 81.5339 92.7184 81.8387 92.66C82.1788 92.5959 82.4942 92.438 82.7493 92.2041C83.0045 91.9702 83.1891 91.6696 83.2824 91.3363C83.5835 90.2337 83.6625 89.0823 83.5148 87.949C83.367 86.8156 82.9955 85.7229 82.4218 84.7344C81.8516 83.7424 81.0909 82.8729 80.1834 82.1759C79.276 81.479 78.2398 80.9682 77.1343 80.6732ZM70.0224 67.1525C67.5905 60.035 59.783 56.2007 52.5624 58.5875C45.3455 60.9782 41.4568 68.69 43.8811 75.8C46.3074 82.9288 54.1186 86.7557 61.3449 84.365C68.5505 81.98 72.4393 74.2682 70.0224 67.1525ZM75.9286 73.6738C77.3855 77.9469 82.0805 80.2513 86.4286 78.815C90.7599 77.375 93.0905 72.7475 91.643 68.4707C90.1824 64.1975 85.4837 61.8932 81.1543 63.3219C76.8155 64.7619 74.4793 69.3913 75.9286 73.6738ZM34.5568 44.3675C36.548 50.1932 42.938 53.3263 48.8443 51.3669C54.7374 49.4132 57.9211 43.1038 55.943 37.2857C53.9499 31.4713 47.5655 28.3382 41.6593 30.29C35.768 32.24 32.5843 38.5494 34.5568 44.3675ZM39.5705 85.9663C37.5155 79.9738 30.9343 76.7432 24.8555 78.7438C18.7918 80.7632 15.5161 87.2525 17.5505 93.2413C19.5886 99.2525 26.1643 102.472 32.2599 100.458C38.3274 98.4425 41.6011 91.9532 39.5705 85.9663Z" fill="#4B4B4B"/>
</svg>
