<svg width="130" height="87" viewBox="0 0 130 87" fill="none" xmlns="http://www.w3.org/2000/svg">
<path fill-rule="evenodd" clip-rule="evenodd" d="M78.3692 76.2347C77.6797 76.7921 76.997 76.9297 76.0103 77.7078C75.7744 81.0459 77.1546 82.4075 79.3758 83.4675C84.0852 85.715 88.5488 87.1325 94.2027 86.281C95.5347 86.0803 96.8465 86.4095 97.8757 85.6252C98.7666 84.9464 99.0147 84.0152 100.033 83.1818C101.379 83.1811 101.852 83.6699 103.278 83.2167C104.46 82.8411 104.531 82.2371 105.486 81.6759C107.457 80.518 109.345 80.8429 111.586 79.9568C113.054 79.3764 112.84 79.0603 113.778 78.4325C114.551 77.9157 115.305 77.9214 116.373 77.2762C123.028 73.2584 123.453 69.9485 123.866 69.4878C124.792 68.4541 125.862 69.6032 127.453 65.2964C128.234 63.1808 129.215 61.8383 129.101 59.0626C128.992 56.417 128.436 54.7998 126.212 54.0655C126.168 50.5966 125.364 50.5227 123.537 49.2902C122.14 48.3484 123.334 49.1745 122.428 48.0165C123.507 45.6097 127.725 45.5643 125.421 42.4362C122.305 38.2066 116.998 36.3249 111.72 35.5245C110.136 35.2842 108.867 34.8412 107.395 35.2412C105.836 35.6647 107.443 35.8936 105.582 35.4603C104.339 35.1709 104.888 35.028 103.374 35.3085L102.876 37.2299C102.117 37.0975 99.5851 36.1104 98.413 35.7154C96.4568 35.0558 94.8777 32.7311 89.8894 36.7642C87.6703 38.5584 87.898 36.673 84.7556 37.1837C83.3642 37.4096 81.5874 38.4825 80.7161 39.1273C78.2508 40.9516 80.1845 42.2929 79.4057 43.9908C78.6545 45.6286 75.2911 44.5045 74.0757 44.4104C71.7019 44.2266 71.5505 45.6589 70.6495 47.1595C69.3169 49.379 66.0533 51.261 65.4109 54.1246C64.8404 56.6673 66.0005 56.7412 65.1744 59.4425C64.5855 61.3684 64.8667 62.895 65.8904 64.1985C67.209 65.8774 69.9359 69.8297 71.6522 70.6105C74.2485 71.7916 72.3456 69.7676 75.5233 72.9747C77.206 74.6729 77.0486 73.9744 78.369 76.2345L78.3692 76.2347Z" fill="#4B4B4B"/>
<path fill-rule="evenodd" clip-rule="evenodd" d="M34.4412 0.229715C24.7276 1.03531 20.1547 2.25677 13.2617 6.6299C8.63491 9.56539 1.95353 15.5425 4.24286 24.4036C5.36457 28.7451 7.56429 29.9208 10.2968 32.1083C13.7971 34.9105 13.2428 35.2736 18.1164 38.0159C24.9342 41.8525 33.2887 42.0587 41.6139 40.306C47.4364 39.08 57.8384 36.2104 62.3445 33.5644C71.5073 28.1843 69.7518 23.1553 72.5616 16.286C73.7264 13.4377 72.431 12.9938 70.9126 11.7335C66.4388 8.02076 64.4489 6.27216 58.3339 3.73913C51.2139 0.78988 42.8856 -0.470963 34.441 0.229371L34.4412 0.229715Z" fill="#4B4B4B"/>
<path fill-rule="evenodd" clip-rule="evenodd" d="M19.2125 34.0979C21.6353 37.6961 20.6751 37.6199 26.7015 37.1313C27.7541 38.4489 27.515 38.5335 29.4963 38.7558C35.8874 39.473 32.1607 38.3711 37.3175 38.2609C40.734 38.1878 43.1423 35.7495 43.6765 35.433C45.0739 34.6051 45.0569 35.0168 46.7001 33.7976C48.6731 32.3335 49.0723 35.2358 53.7739 33.708C56.4047 32.8532 55.8053 32.1462 59.9449 30.8675C62.47 30.0875 62.6064 28.4944 64.8911 26.7442C67.421 24.8064 67.544 24.2332 66.9668 20.3673C66.5139 17.3337 64.3507 16.8575 61.0461 17.0496C56.7602 17.299 58.6439 18.3478 53.5364 18.538C52.1997 18.5879 51.0768 18.8558 49.8184 19.1401C48.0861 19.5314 47.2031 19.2691 45.4088 19.3346C42.459 19.4425 39.7557 20.7952 37.631 20.8519C33.5353 20.9616 34.4726 19.1903 29.9906 21.4841C25.4887 23.7884 18.2192 20.279 15.2561 24.8506C14.4276 26.1287 9.7086 27.8781 14.4639 31.6856C15.5168 32.5289 14.9143 32.0623 15.6558 32.9882C16.579 34.1411 17.2869 34.166 19.2125 34.0977V34.0979Z" fill="white"/>
<path fill-rule="evenodd" clip-rule="evenodd" d="M20.2675 7.09836C14.7635 7.19192 14.5155 8.59362 13.5039 11.4937C10.997 11.8074 10.2978 12.9091 8.77746 15.5538C8.18754 16.58 7.91013 18.0669 8.6956 19.0362C9.47642 20 10.281 19.5377 11.592 20.5192C16.7438 24.3768 20.6759 20.0332 25.7523 20.0019C30.2419 19.9741 29.3768 20.3892 33.2966 18.8534C35.5567 17.9678 38.6129 18.4662 41.2273 18.0868C42.7088 17.8717 43.4688 17.5055 44.7129 17.1951C45.9901 16.8765 47.3863 16.961 48.7043 16.7967C49.9651 16.6397 51.3653 16.1609 52.3356 16.0859C53.0064 16.034 61.2874 16.8931 62.6334 13.5641C62.8571 13.0108 63.5637 8.47839 60.8705 7.1147C59.9597 6.65343 58.6625 6.38117 57.7687 5.85059C56.6922 5.21148 56.3594 4.6895 54.8704 4.35515C53.5151 4.0509 52.3796 4.3039 50.8766 3.99243C48.5115 3.50244 45.8591 2.76323 43.1085 4.0258C41.6471 4.69672 41.9345 5.43077 40.05 4.88883L32.9101 3.32305C31.3343 3.21745 30.1652 3.58258 28.9405 3.45445C25.4618 3.09001 27.1299 2.26327 22.4264 4.56223C20.9741 5.27202 20.6064 5.33136 20.2675 7.09801V7.09836Z" fill="white"/>
<path fill-rule="evenodd" clip-rule="evenodd" d="M73.7282 21.6266L73.6333 18.6737C73.0453 19.4561 72.3312 22.9413 71.7882 24.5872C69.6829 30.9698 68.2611 34.2909 61.4674 37.0276C47.2968 42.7364 25.3828 47.9254 13.2685 37.2395C6.86611 31.5919 1.54996 31.5395 3.04058 17.4095C2.57295 17.7715 2.87754 17.4545 2.48884 17.9538C-0.183504 21.3879 0.739384 28.2947 1.83426 32.0807C4.41408 41.001 7.54373 41.8716 13.7506 47.056C15.3766 48.414 17.0782 50.0546 18.7525 51.1024C22.963 53.7367 27.83 54.479 33.5682 53.8215C40.9164 52.9796 55.4272 48.2806 60.9595 45.2737C69.5328 40.6139 73.7018 34.7211 73.7282 21.6262V21.6266Z" fill="#4B4B4B"/>
<path fill-rule="evenodd" clip-rule="evenodd" d="M91.6856 73.3756C94.0618 71.1738 103.776 64.9966 98.5176 61.8352C95.8453 60.2285 92.5051 62.2442 90.7766 63.5577C88.5153 65.2759 86.2074 65.4571 83.9296 67.6132C79.4672 71.8374 79.9497 78.927 85.6483 81.5731C87.981 82.6563 92.0175 83.0033 94.9444 82.6422C98.0278 82.2615 100.197 79.9652 101.53 78.4441C102.972 78.4515 103.939 78.2216 105.34 78.3643C107.05 78.5385 107.208 78.6302 108.807 78.1283C111.721 77.2137 111.125 76.1223 112.138 73.6978C113.35 72.816 114.763 73.3316 115.896 72.1193C116.63 71.334 116.278 71.2708 116.589 70.317C117.084 68.799 116.47 69.6395 118.274 69.2003C119.754 68.84 120.521 68.0218 121.06 66.6521C122.454 63.1133 121.392 65.6817 123.888 63.901C128.039 60.9394 122.692 50.7849 116.018 54.1431C112.994 55.6648 113.512 57.6479 112.362 58.6165C111.498 59.345 111.385 58.8155 110.684 59.736C109.748 60.9643 110.559 62.6804 109.433 63.7919C108.228 64.9814 106.345 63.9295 104.799 64.7749C103.336 65.5755 104.067 66.8676 102.132 67.45C100.135 68.0507 99.6906 67.7083 98.5539 69.4543C97.5394 71.013 98.0147 71.5386 96.0627 72.2694C95.1121 72.6252 92.604 73.3338 91.6854 73.3755L91.6856 73.3756Z" fill="white"/>
<path fill-rule="evenodd" clip-rule="evenodd" d="M17.8751 25.366C16.5458 28.7318 18.3792 26.2577 15.6466 28.049C15.1907 28.3477 15.3879 28.1844 15.1208 28.4915C15.5095 29.2202 17.366 31.0347 17.9647 31.557C22.5987 31.4628 20.7719 32.0955 22.4367 34.6138C25.0659 35.4802 25.6859 34.0546 27.5824 34.4492C29.3468 34.8164 28.3852 36.4319 32.0376 36.506C33.4685 36.535 33.2134 36.1333 34.3257 35.8024C36.3066 35.2131 37.0276 36.3347 39.9782 34.9122C42.0779 33.9 40.4877 34.4463 41.3681 32.9085C46.2585 32.3925 44.7784 31.41 47.921 29.7175C49.1277 30.9296 49.5698 32.0481 52.3923 31.4201C54.4684 30.9583 55.3894 29.7845 56.972 29.0961C59.591 27.957 59.3993 28.944 61.1732 26.7651C62.4691 25.1737 63.6185 24.7243 64.7526 23.5527C64.7536 23.1972 64.4703 20.6922 64.3733 20.4516C63.9815 19.4802 62.6798 19.548 61.3305 19.6003C58.3919 19.7138 57.5346 21.1354 55.7236 21.1815C52.4033 21.2665 51.9491 21.5489 49.1323 21.9421C46.838 22.2621 45.3262 21.7178 42.4064 22.3519C40.5142 22.763 38.6777 23.6313 36.4965 23.3412C33.0753 22.8861 33.8938 22.3005 30.8521 23.9187C28.5103 25.1644 21.4161 24.8493 17.8751 25.3656V25.366Z" fill="#4B4B4B"/>
<path fill-rule="evenodd" clip-rule="evenodd" d="M10.8564 17.2577C11.6718 17.7561 11.164 17.3791 12.0346 17.5974C12.8252 17.7955 12.7634 17.6306 13.2976 18.1895C14.1736 19.1062 13.5028 19.3977 15.7672 19.4572C18.1267 19.5192 19.9914 18.8107 21.9522 18.1331C24.8919 17.1172 25.6531 17.6469 28.5901 17.607C30.7988 17.5771 32.0615 16.208 34.3514 15.91C39.6283 15.2231 36.9038 16.6604 44.0781 14.6651C45.2631 14.3356 46.2596 14.4651 47.5965 14.3867C50.6682 14.207 50.7153 13.2383 54.16 13.6115C56.0447 13.8157 59.146 13.3962 60.2642 12.2651C59.6062 8.76252 61.0095 9.95732 57.5301 8.59363C55.1117 7.64581 55.9487 6.90093 52.6135 6.78604C48.2965 6.63727 44.8718 3.95529 42.3044 8.42508C41.1817 8.23332 40.2934 7.65647 39.1889 7.2762C37.4638 6.68233 36.8208 7.17335 35.1275 7.22357L34.6037 6.05612C33.0671 5.90288 32.093 5.74654 30.6529 5.9316C27.8906 6.28676 26.2605 4.63103 23.3304 7.01771C21.9574 8.13597 23.4492 8.94208 21.1835 9.52924C19.9346 9.85292 18.4126 9.53423 17.3074 10.0302C15.6042 10.7949 16.7558 11.8951 15.6927 13.1093C14.4862 14.4877 12.4869 13.1025 10.8568 17.2575L10.8564 17.2577Z" fill="#4B4B4B"/>
<path fill-rule="evenodd" clip-rule="evenodd" d="M112.772 61.2043C112.444 66.5939 109.839 66.8372 106.274 67.0902C105.636 67.9252 104.353 69.36 103.305 69.8305C100.366 71.15 101.864 68.9097 99.9419 72.404C98.8823 74.3309 94.1395 75.9005 91.6007 76.0099C89.6433 76.0943 88.2694 75.2421 88.6189 73.2477C88.9182 71.5399 90.4184 71.127 91.5757 70.2723C92.5827 69.529 92.1971 69.4951 92.8842 68.7743C93.5345 68.0922 97.1798 66.6047 97.226 64.0644C95.5319 63.3345 93.1946 64.9228 92.0941 65.7902C90.282 67.2185 88.9651 67.1991 86.9578 68.4718C81.1397 72.1606 82.5104 80.312 91.2937 80.0552C94.7896 79.953 95.1402 80.2841 97.7384 78.621C100.045 77.1445 98.8341 76.1536 102.491 75.8411C105.418 75.5912 106.375 76.2255 109.061 75.3094C110.348 71.1015 109.082 71.5557 113.908 70.4495C114.867 67.0171 114.882 67.3603 118.262 66.6893C119.155 64.384 119.12 63.2453 121.35 62.2959C125.27 60.6266 120.112 53.5479 116.399 57.0267C114.799 58.5249 115.451 60.5179 112.772 61.2041L112.772 61.2043Z" fill="#4B4B4B"/>
<path fill-rule="evenodd" clip-rule="evenodd" d="M107.209 45.1684C109.004 45.4443 108.056 45.8554 109.263 46.7218C109.631 46.9855 112.253 47.4719 112.585 47.497C114.518 47.6435 113.434 46.5825 115.509 46.6907C117.12 46.7746 120.999 46.9695 121.548 44.9505C122.638 40.9377 115.504 38.6119 111.879 38.6241C109.646 38.6315 110.263 39.6764 108.893 39.5573C108.415 39.5159 104.687 38.1579 103.046 40.8655C102.673 41.4808 102.451 43.2071 102.193 44.0701C101.786 45.4297 101.779 46.1691 102.661 47.0744C105.291 49.7717 106.256 46.5524 107.209 45.1684Z" fill="white"/>
<path fill-rule="evenodd" clip-rule="evenodd" d="M94.743 48.4132C96.455 46.6666 95.6346 44.7056 96.6555 43.2522C97.7174 41.7187 100.246 42.6268 99.9828 40.1024C99.784 38.1986 95.9586 35.3725 91.6534 40.0986C90.1611 41.737 89.3985 39.9046 86.6326 40.6703C81.7349 42.0261 80.9401 47.518 84.4072 47.4287C85.8893 47.3905 85.6911 46.5552 87.1148 46.9611C89.3342 47.5938 87.6817 49.8247 94.7432 48.4132H94.743Z" fill="white"/>
<path fill-rule="evenodd" clip-rule="evenodd" d="M97.5446 56.3405C98.3541 56.8651 99.1202 57.0132 99.8382 58.0174C102.482 61.714 103.727 58.4128 104.719 57.4996C105.734 56.5646 106.666 57.1769 107.802 57.4349C108.239 56.8684 109.478 54.8535 109.972 54.3481C111.291 52.9993 112.956 53.6194 112.256 51.5828C109.908 50.2515 108.321 52.6371 106.362 52.1583C104.118 51.6097 106.76 51.2673 103.49 51.4004C102.226 51.4518 100.992 51.363 99.7206 51.33C99.0674 52.3277 99.3242 52.4603 98.4659 53.4414C97.5793 54.4547 97.3791 54.4759 97.5446 56.3405Z" fill="#4B4B4B"/>
<path fill-rule="evenodd" clip-rule="evenodd" d="M73.6502 61.6517C76.7687 57.289 75.3248 58.053 78.4557 57.5231C78.5508 57.507 78.6655 57.476 78.7427 57.4614C79.5176 57.3159 80.1518 54.2493 81.4836 52.6813C81.9622 52.1177 82.0846 52.3 82.4761 51.4323C80.2069 51.4291 78.4997 50.2191 77.4238 51.4122C76.667 52.2515 77.0824 52.3881 75.853 52.9949C74.8256 53.5017 73.7708 53.316 73.1829 53.7875C72.5765 54.2741 68.0078 61.4138 73.6502 61.6519V61.6517Z" fill="#4B4B4B"/>
<path fill-rule="evenodd" clip-rule="evenodd" d="M105.179 43.0695C106.308 42.8404 107.075 42.3418 108.482 42.8041C110.555 43.485 109.37 44.116 111.355 44.3215C113.276 44.5205 113.426 43.9679 115.01 44.0369C116.811 44.1151 116.987 44.8237 118.715 43.782C117.111 41.507 112.615 41.0699 111.702 41.351C110.671 41.6681 110.433 43.0039 108.4 42.2924C107.206 41.8745 105.352 40.9325 105.18 43.0696L105.179 43.0695Z" fill="#4B4B4B"/>
<path fill-rule="evenodd" clip-rule="evenodd" d="M85.7192 43.8436C87.603 45.0742 88.0392 43.7621 90.28 46.3098C90.9716 46.2489 91.3737 46.1822 91.9992 46.0532C95.7045 45.2894 91.5527 44.4276 95.6756 40.333C93.8961 40.8359 93.2636 42.7326 91.7194 43.2484C89.2839 44.0617 89.1017 42.1112 85.7192 43.8436Z" fill="#4B4B4B"/>
</svg>
