<svg width="77" height="85" viewBox="0 0 77 85" fill="none" xmlns="http://www.w3.org/2000/svg">
<path d="M40.4248 1.13039L38.5001 0.14476L36.5754 1.13039C31.7333 3.60353 27.32 6.83853 23.5042 10.7117C29.0591 13.6013 34.1206 17.3535 38.5001 21.8286C42.8784 17.3539 47.9384 13.6017 53.4918 10.7117C49.6773 6.8389 45.2654 3.60391 40.4248 1.13039ZM32.9967 28.3092C25.6192 20.5327 15.9658 15.2958 5.42442 13.3514L0.42859 12.4292V46.3551C0.426882 53.9962 2.72444 61.4609 7.02245 67.7785C11.3205 74.0962 17.42 78.9743 24.5279 81.7786C22.5695 75.8065 21.5742 69.5608 21.5794 63.2758C21.5794 50.1961 25.8138 38.1063 32.9967 28.3092ZM76.5717 12.4334L71.58 13.3514C47.9419 17.6915 30.0398 38.3897 30.0398 63.2758C30.0398 69.7734 31.2665 75.9959 33.4958 81.7194L34.5111 84.3209C35.8393 84.3632 37.1718 84.4267 38.5001 84.4267C48.5973 84.4267 58.281 80.4156 65.4208 73.2758C72.5606 66.136 76.5717 56.4523 76.5717 46.3551V12.4334Z" fill="#4B4B4B"/>
</svg>
