<svg width="80" height="79" viewBox="0 0 80 79" fill="none" xmlns="http://www.w3.org/2000/svg">
<path d="M71.6429 19.643H68.8929C69.7925 17.8083 70.2639 15.793 70.2718 13.7501C70.2718 10.1034 68.8231 6.60603 66.2445 4.0274C63.6659 1.44878 60.1685 0.00012207 56.5218 0.00012207C49.7764 0.00012207 43.8914 4.71441 39.5071 9.74691C33.9286 3.30798 28.2282 0.00012207 22.5357 0.00012207C18.889 0.00012207 15.3916 1.44878 12.813 4.0274C10.2344 6.60603 8.78573 10.1034 8.78573 13.7501C8.79752 15.793 9.26894 17.8083 10.1647 19.643H8.78573C6.70189 19.643 4.70339 20.4708 3.22989 21.9443C1.75639 23.4178 0.928589 25.4163 0.928589 27.5001V35.3573C0.928589 36.3992 1.34249 37.3984 2.07924 38.1352C2.81599 38.8719 3.81524 39.2858 4.85716 39.2858H75.5714C76.6133 39.2858 77.6126 38.8719 78.3493 38.1352C79.0861 37.3984 79.5 36.3992 79.5 35.3573V27.5001C79.5 25.4163 78.6722 23.4178 77.1987 21.9443C75.7252 20.4708 73.7267 19.643 71.6429 19.643ZM32.585 19.643H22.5357C20.9728 19.643 19.474 19.0221 18.3688 17.917C17.2637 16.8119 16.6429 15.313 16.6429 13.7501C16.6429 12.1872 17.2637 10.6884 18.3688 9.58324C19.474 8.47812 20.9728 7.85726 22.5357 7.85726C26.0714 7.85726 30.3929 10.8194 34.6829 16.1937C33.8225 17.5176 33.1429 18.6883 32.585 19.643ZM56.5493 19.643H41.8486C45.5139 14.2687 51.1632 7.85726 56.5375 7.85726C58.1004 7.85726 59.5993 8.47812 60.7044 9.58324C61.8095 10.6884 62.4304 12.1872 62.4304 13.7501C62.4304 15.313 61.8095 16.8119 60.7044 17.917C59.5993 19.0221 58.1004 19.643 56.5375 19.643H56.5493ZM44.1429 47.143H36.2857V78.5715H44.1429V47.143ZM28.4286 47.143H8.78573V70.7144C8.78573 72.7982 9.61353 74.7967 11.087 76.2702C12.5605 77.7437 14.559 78.5715 16.6429 78.5715H28.4286V47.143ZM52 47.143V78.5715H63.7857C65.8696 78.5715 67.8681 77.7437 69.3416 76.2702C70.8151 74.7967 71.6429 72.7982 71.6429 70.7144V47.143H52Z" fill="#4B4B4B"/>
</svg>
