<svg width="121" height="121" viewBox="0 0 121 121" fill="none" xmlns="http://www.w3.org/2000/svg">
<path d="M111.643 54.5V24.5H85.9286V12.5H60.2144V0.5H25.9286V18.5H8.78578V54.5H0.214355L17.3572 120.5H103.071L120.214 54.5H111.643ZM93.3001 54.5C91.9286 58.16 89.3572 61.46 85.9286 64.22V40.22L103.071 46.22V54.5H93.3001ZM103.071 30.5V39.5L85.9286 33.5V30.5H103.071ZM60.2144 18.5H77.3572V39.5L60.2144 45.5V18.5ZM60.2144 52.22L77.3572 46.22V69.2C72.3001 71.3 66.4715 72.5 60.2144 72.5V52.22ZM51.6429 71.66C44.8715 70.4 38.7858 67.82 34.5001 64.22V46.22L51.6429 40.22V71.66ZM34.5001 6.5H51.6429V33.5L43.0715 36.5V18.5H34.5001V6.5ZM17.3572 24.5H34.5001V39.5L25.9286 42.5V54.5H17.3572V24.5Z" fill="#4B4B4B"/>
</svg>
