<svg width="121" height="121" viewBox="0 0 121 121" fill="none" xmlns="http://www.w3.org/2000/svg">
<path d="M38.2856 0.5H21.4106C15.9406 0.5 10.6945 3.39731 6.82657 8.55456C2.95863 13.7118 0.785645 20.7065 0.785645 28V50.5H17.7956C16.1449 46.6872 15.4839 42.2547 15.9149 37.89C16.346 33.5252 17.8452 29.4721 20.1799 26.3591C22.5147 23.2461 25.5546 21.2472 28.8281 20.6724C32.1017 20.0976 35.4261 20.979 38.2856 23.18V0.5ZM45.7856 40.5V50.5H53.2856C54.769 50.5 56.2191 49.9135 57.4524 48.8147C58.6858 47.7159 59.6471 46.1541 60.2147 44.3268C60.7824 42.4996 60.9309 40.4889 60.6415 38.5491C60.3521 36.6093 59.6378 34.8275 58.5889 33.4289C57.5401 32.0304 56.2037 31.078 54.7488 30.6921C53.294 30.3063 51.786 30.5043 50.4155 31.2612C49.0451 32.0181 47.8737 33.2998 47.0496 34.9443C46.2255 36.5888 45.7856 38.5222 45.7856 40.5ZM66.2757 50.5C67.9264 46.6872 68.5874 42.2547 68.1563 37.89C67.7253 33.5252 66.2261 29.4721 63.8913 26.3591C61.5566 23.2461 58.5167 21.2472 55.2432 20.6724C51.9696 20.0976 48.6452 20.979 45.7856 23.18V0.5H100.161C105.631 0.5 110.877 3.39731 114.745 8.55456C118.613 13.7118 120.786 20.7065 120.786 28V50.5H66.2757ZM51.0881 60.5L63.4406 76.96C64.1448 77.8989 64.5404 79.1722 64.5404 80.5C64.5404 81.8278 64.1448 83.1011 63.4406 84.04C62.7365 84.9789 61.7815 85.5063 60.7856 85.5063C59.7898 85.5063 58.8348 84.9789 58.1306 84.04L45.7856 67.57V120.5H100.161C105.631 120.5 110.877 117.603 114.745 112.445C118.613 107.288 120.786 100.293 120.786 93V60.5H51.0881ZM38.2856 120.5V67.57L25.9406 84.04C25.2365 84.9789 24.2815 85.5063 23.2856 85.5063C22.2898 85.5063 21.3348 84.9789 20.6306 84.04C19.9265 83.1011 19.5309 81.8278 19.5309 80.5C19.5309 79.1722 19.9265 77.8989 20.6306 76.96L32.9831 60.5H0.785645V93C0.785645 100.293 2.95863 107.288 6.82657 112.445C10.6945 117.603 15.9406 120.5 21.4106 120.5H38.2856ZM38.2856 40.5C38.2856 38.5222 37.8458 36.5888 37.0217 34.9443C36.1976 33.2998 35.0262 32.0181 33.6558 31.2612C32.2853 30.5043 30.7773 30.3063 29.3225 30.6921C27.8676 31.078 26.5312 32.0304 25.4823 33.4289C24.4335 34.8275 23.7191 36.6093 23.4298 38.5491C23.1404 40.4889 23.2889 42.4996 23.8565 44.3268C24.4242 46.1541 25.3855 47.7159 26.6189 48.8147C27.8522 49.9135 29.3023 50.5 30.7856 50.5H38.2856V40.5Z" fill="#4B4B4B"/>
</svg>
