<svg width="44" height="44" viewBox="0 0 44 44" fill="none" xmlns="http://www.w3.org/2000/svg">
<g clip-path="url(#clip0_624_1194)">
<path d="M30.25 19.25C30.25 23.815 26.565 27.5 22 27.5C17.435 27.5 13.75 23.815 13.75 19.25C13.75 14.685 17.435 11 22 11C26.565 11 30.25 14.685 30.25 19.25Z" fill="#E31E24"/>
<path fill-rule="evenodd" clip-rule="evenodd" d="M44 22C44 34.155 34.155 44 22 44C9.845 44 0 34.155 0 22C0 9.845 9.845 0 22 0C34.155 0 44 9.845 44 22ZM11 37.8125C11.44 37.081 15.7025 30.25 21.9725 30.25C28.215 30.25 32.505 37.0975 32.945 37.8125C35.5021 36.0442 37.5915 33.6812 39.0334 30.9268C40.4752 28.1724 41.2265 25.109 41.2225 22C41.2225 11.3575 32.615 2.75 21.9725 2.75C11.33 2.75 2.7225 11.3575 2.7225 22C2.7225 28.545 5.995 34.3475 11 37.8125Z" fill="#E31E24"/>
</g>
<defs>
<clipPath id="clip0_624_1194">
<rect width="44" height="44" fill="white"/>
</clipPath>
</defs>
</svg>
