<svg width="19" height="18" viewBox="0 0 19 18" fill="none" xmlns="http://www.w3.org/2000/svg">
<path d="M1.42773 18C1.1444 18 0.907068 17.904 0.715734 17.712C0.524401 17.52 0.428401 17.2827 0.427734 17V14.575C0.427734 14.3083 0.477734 14.054 0.577734 13.812C0.677734 13.57 0.819401 13.3577 1.00273 13.175L13.6277 0.575C13.8277 0.391667 14.0487 0.25 14.2907 0.15C14.5327 0.0500001 14.7867 0 15.0527 0C15.3187 0 15.5771 0.0500001 15.8277 0.15C16.0784 0.25 16.2951 0.4 16.4777 0.6L17.8527 2C18.0527 2.18333 18.1984 2.4 18.2897 2.65C18.3811 2.9 18.4271 3.15 18.4277 3.4C18.4277 3.66667 18.3817 3.921 18.2897 4.163C18.1977 4.405 18.0521 4.62567 17.8527 4.825L5.25273 17.425C5.0694 17.6083 4.85673 17.75 4.61473 17.85C4.37273 17.95 4.11873 18 3.85273 18H1.42773ZM15.0277 4.8L16.4277 3.4L15.0277 2L13.6277 3.4L15.0277 4.8Z" fill="#A0A0A0"/>
</svg>
