<svg width="27" height="24" viewBox="0 0 27 24" fill="none" xmlns="http://www.w3.org/2000/svg">
<path d="M7.46089 0.393139C8.61248 0.196925 9.79342 0.261651 10.9167 0.582547C12.0399 0.903443 13.0768 1.47233 13.951 2.24727L13.9991 2.2902L14.0434 2.25117C14.8777 1.51901 15.8585 0.973182 16.9204 0.650092C17.9824 0.327002 19.101 0.23408 20.2017 0.377526L20.5217 0.424367C21.9092 0.663919 23.206 1.27422 24.2748 2.19063C25.3437 3.10704 26.1449 4.29545 26.5935 5.63002C27.042 6.96459 27.1214 8.39563 26.823 9.7716C26.5247 11.1476 25.8598 12.4173 24.8988 13.4462L24.6646 13.6869L24.6021 13.7402L14.9086 23.3414C14.6849 23.5628 14.3886 23.6956 14.0744 23.7152C13.7603 23.7348 13.4497 23.6399 13.2002 23.4481L13.0779 23.3414L3.32846 13.6843C2.29564 12.6794 1.56112 11.4082 1.20625 10.0115C0.851372 8.61486 0.889994 7.14723 1.31783 5.77117C1.74567 4.3951 2.54603 3.16431 3.63028 2.21509C4.71452 1.26587 6.04034 0.635277 7.46089 0.393139Z" fill="#E31E24"/>
</svg>
