<svg width="33" height="30" viewBox="0 0 33 30" fill="none" xmlns="http://www.w3.org/2000/svg">
<path d="M12.6464 0.882627C9.90935 0.868289 7.24467 3.47786 8.46115 6.71831H3.87038C3.10221 6.71831 2.36551 7.02043 1.82233 7.55822C1.27915 8.09601 0.973999 8.82541 0.973999 9.58596V12.4536C0.973999 12.8339 1.12658 13.1986 1.39816 13.4675C1.66975 13.7364 2.03811 13.8874 2.42219 13.8874H15.4559V9.58596H18.3523V13.8874H31.386C31.7701 13.8874 32.1385 13.7364 32.4101 13.4675C32.6817 13.1986 32.8342 12.8339 32.8342 12.4536V9.58596C32.8342 8.82541 32.5291 8.09601 31.9859 7.55822C31.4427 7.02043 30.706 6.71831 29.9378 6.71831H25.3471C27.0415 2.02969 20.6694 -1.28245 17.7296 2.76094L16.9041 3.85065L16.0786 2.73227C15.1663 1.45616 13.9064 0.896965 12.6464 0.882627ZM12.5595 3.85065C13.8484 3.85065 14.5001 5.39918 13.5878 6.3025C12.6754 7.20581 11.1113 6.56059 11.1113 5.28448C11.1113 4.9042 11.2639 4.5395 11.5355 4.27061C11.8071 4.00171 12.1755 3.85065 12.5595 3.85065ZM21.2487 3.85065C22.5376 3.85065 23.1893 5.39918 22.2769 6.3025C21.3645 7.20581 19.8005 6.56059 19.8005 5.28448C19.8005 4.9042 19.9531 4.5395 20.2247 4.27061C20.4963 4.00171 20.8646 3.85065 21.2487 3.85065ZM2.42219 15.3213V26.7919C2.42219 27.5524 2.72735 28.2818 3.27052 28.8196C3.8137 29.3574 4.55041 29.6596 5.31858 29.6596H28.4897C29.2578 29.6596 29.9945 29.3574 30.5377 28.8196C31.0809 28.2818 31.386 27.5524 31.386 26.7919V15.3213H18.3523V26.7919H15.4559V15.3213H2.42219Z" fill="#FF364D"/>
</svg>
