<svg width="27" height="28" viewBox="0 0 27 28" fill="none" xmlns="http://www.w3.org/2000/svg">
<path d="M1 4.90188C1 4.50004 1.16462 4.11465 1.45765 3.8305C1.75067 3.54635 2.1481 3.38672 2.5625 3.38672H24.4375C24.8519 3.38672 25.2493 3.54635 25.5424 3.8305C25.8354 4.11465 26 4.50004 26 4.90188V10.9625H1V4.90188Z" stroke="#E31E24" stroke-width="2" stroke-linejoin="round"/>
<path d="M7.25 5.65975V1.11426M19.75 5.65975V1.11426" stroke="#E31E24" stroke-width="2" stroke-linecap="round"/>
<path d="M1 10.9629H26V24.5994C26 25.0012 25.8354 25.3866 25.5424 25.6708C25.2493 25.9549 24.8519 26.1145 24.4375 26.1145H2.5625C2.1481 26.1145 1.75067 25.9549 1.45765 25.6708C1.16462 25.3866 1 25.0012 1 24.5994V10.9629Z" stroke="#E31E24" stroke-width="2" stroke-linejoin="round"/>
</svg>
