<svg width="46" height="42" viewBox="0 0 46 42" fill="none" xmlns="http://www.w3.org/2000/svg">
<path d="M11.476 0.198772C13.5108 -0.152874 15.5974 -0.0368746 17.582 0.53822C19.5667 1.11331 21.3988 2.13284 22.9433 3.52165L22.9506 3.52823C22.9948 3.56824 23.0621 3.56842 23.1065 3.52865C24.5806 2.21651 26.3136 1.2383 28.19 0.659271C30.0663 0.0802436 32.0428 -0.0862863 33.9876 0.17079L34.5531 0.254737C37.0045 0.684051 39.2958 1.77779 41.1844 3.42014C43.073 5.06249 44.4885 7.19231 45.2811 9.58406C46.0737 11.9758 46.2139 14.5404 45.6868 17.0064C45.1597 19.4723 43.9849 21.7478 42.2868 23.5918L41.873 24.0232L41.7627 24.1188L24.6354 41.3255C24.2401 41.7223 23.7165 41.9603 23.1614 41.9955C22.6064 42.0306 22.0577 41.8605 21.6168 41.5167L21.4007 41.3255L4.17452 24.0186C2.34964 22.2176 1.05183 19.9394 0.424806 17.4364C-0.202216 14.9334 -0.133977 12.3031 0.621967 9.83702C1.37791 7.3709 2.79206 5.16513 4.70779 3.46399C6.62353 1.76284 8.96609 0.63272 11.476 0.198772Z" fill="#E31E24"/>
</svg>
