<svg width="26" height="25" viewBox="0 0 26 25" fill="none" xmlns="http://www.w3.org/2000/svg">
<path d="M16.6111 20C15.6 20 14.7454 19.6979 14.0472 19.0937C13.3491 18.4896 13 17.75 13 16.875C13 16 13.3491 15.2604 14.0472 14.6563C14.7454 14.0521 15.6 13.75 16.6111 13.75C17.6222 13.75 18.4768 14.0521 19.175 14.6563C19.8731 15.2604 20.2222 16 20.2222 16.875C20.2222 17.75 19.8731 18.4896 19.175 19.0937C18.4768 19.6979 17.6222 20 16.6111 20ZM2.88889 25C2.09444 25 1.41459 24.7554 0.849333 24.2662C0.284074 23.7771 0.000962963 23.1883 0 22.5V5C0 4.3125 0.283111 3.72417 0.849333 3.235C1.41556 2.74584 2.09541 2.50084 2.88889 2.5H4.33333V1.25C4.33333 0.895837 4.472 0.599171 4.74933 0.360004C5.02667 0.120838 5.36948 0.000837643 5.77778 4.31034e-06C6.18607 -0.000829023 6.52937 0.119171 6.80767 0.360004C7.08596 0.600838 7.22415 0.897504 7.22222 1.25V2.5H18.7778V1.25C18.7778 0.895837 18.9164 0.599171 19.1938 0.360004C19.4711 0.120838 19.8139 0.000837643 20.2222 4.31034e-06C20.6305 -0.000829023 20.9738 0.119171 21.2521 0.360004C21.5304 0.600838 21.6686 0.897504 21.6667 1.25V2.5H23.1111C23.9056 2.5 24.5859 2.745 25.1521 3.235C25.7183 3.725 26.001 4.31334 26 5V22.5C26 23.1875 25.7174 23.7762 25.1521 24.2662C24.5868 24.7562 23.9065 25.0008 23.1111 25H2.88889ZM2.88889 22.5H23.1111V10H2.88889V22.5ZM2.88889 7.5H23.1111V5H2.88889V7.5Z" fill="#E31E24"/>
</svg>
