<svg width="30" height="32" viewBox="0 0 30 32" fill="none" xmlns="http://www.w3.org/2000/svg">
<path d="M15 14C13.6739 14 12.4021 13.4732 11.4645 12.5355C10.5268 11.5979 10 10.3261 10 9C10 7.67392 10.5268 6.40215 11.4645 5.46447C12.4021 4.52678 13.6739 4 15 4C16.3261 4 17.5979 4.52678 18.5355 5.46447C19.4732 6.40215 20 7.67392 20 9C20 10.3261 19.4732 11.5979 18.5355 12.5355C17.5979 13.4732 16.3261 14 15 14ZM15 6C13.34 6 12 7.34 12 9C12 10.66 13.34 12 15 12C16.66 12 18 10.66 18 9C18 7.34 16.66 6 15 6Z" fill="#E31E24"/>
<path d="M27 22C26.44 22 26 21.56 26 21C26 20.44 26.44 20 27 20C27.56 20 28 19.56 28 19C28 17.6739 27.4732 16.4021 26.5355 15.4645C25.5979 14.5268 24.3261 14 23 14H21C20.44 14 20 13.56 20 13C20 12.44 20.44 12 21 12C22.66 12 24 10.66 24 9C24 7.34 22.66 6 21 6C20.44 6 20 5.56 20 5C20 4.44 20.44 4 21 4C22.3261 4 23.5979 4.52678 24.5355 5.46447C25.4732 6.40215 26 7.67392 26 9C26 10.24 25.56 11.36 24.8 12.24C27.78 13.04 30 15.76 30 19C30 20.66 28.66 22 27 22ZM3 22C1.34 22 0 20.66 0 19C0 15.76 2.2 13.04 5.2 12.24C4.46 11.36 4 10.24 4 9C4 7.67392 4.52678 6.40215 5.46447 5.46447C6.40215 4.52678 7.67392 4 9 4C9.56 4 10 4.44 10 5C10 5.56 9.56 6 9 6C7.34 6 6 7.34 6 9C6 10.66 7.34 12 9 12C9.56 12 10 12.44 10 13C10 13.56 9.56 14 9 14H7C5.67392 14 4.40215 14.5268 3.46447 15.4645C2.52678 16.4021 2 17.6739 2 19C2 19.56 2.44 20 3 20C3.56 20 4 20.44 4 21C4 21.56 3.56 22 3 22ZM21 28H9C7.34 28 6 26.66 6 25V23C6 19.14 9.14 16 13 16H17C20.86 16 24 19.14 24 23V25C24 26.66 22.66 28 21 28ZM13 18C11.6739 18 10.4021 18.5268 9.46447 19.4645C8.52678 20.4021 8 21.6739 8 23V25C8 25.56 8.44 26 9 26H21C21.56 26 22 25.56 22 25V23C22 21.6739 21.4732 20.4021 20.5355 19.4645C19.5979 18.5268 18.3261 18 17 18H13Z" fill="#E31E24"/>
</svg>
