<svg width="32" height="30" viewBox="0 0 24 24" fill="none" xmlns="http://www.w3.org/2000/svg">
<path d="M7.43988 0.921333L3.10922 8.5H1.45255C1.27315 8.49996 1.09616 8.5413 0.935335 8.62079C0.774511 8.70029 0.634186 8.8158 0.525269 8.95836C0.416351 9.10091 0.341776 9.26666 0.30734 9.44272C0.272904 9.61878 0.279534 9.80042 0.326716 9.9735L3.59222 21.947C3.72757 22.4406 4.02115 22.8761 4.42789 23.1868C4.83464 23.4974 5.33208 23.666 5.84388 23.6667H18.0624C19.11 23.6667 20.0364 22.9608 20.314 21.9458L23.5795 9.97233C23.627 9.7992 23.6339 9.61743 23.5995 9.44123C23.5651 9.26503 23.4904 9.09917 23.3813 8.95662C23.2721 8.81406 23.1315 8.69867 22.9704 8.61946C22.8093 8.54024 22.6321 8.49936 22.4525 8.5H20.7959L16.4652 0.921333L14.4399 2.07867L18.109 8.5H5.79605L9.46522 2.07867L7.43988 0.921333ZM14.2859 13.1667H16.6192V19H14.2859V13.1667ZM7.28588 13.1667H9.61922V19H7.28588V13.1667Z" fill="white"/>
</svg>
