<svg width="24" height="16" viewBox="0 0 24 16" fill="none" xmlns="http://www.w3.org/2000/svg">
<path d="M23.25 1.33301C23.25 1.66453 23.1183 1.98247 22.8839 2.21689C22.6495 2.45131 22.3315 2.58301 22 2.58301H2C1.66848 2.58301 1.35054 2.45131 1.11612 2.21689C0.881696 1.98247 0.75 1.66453 0.75 1.33301C0.75 1.00149 0.881696 0.683545 1.11612 0.449124C1.35054 0.214704 1.66848 0.0830078 2 0.0830078H22C22.3315 0.0830078 22.6495 0.214704 22.8839 0.449124C23.1183 0.683545 23.25 1.00149 23.25 1.33301ZM23.25 7.99967C23.25 8.33119 23.1183 8.64914 22.8839 8.88356C22.6495 9.11798 22.3315 9.24967 22 9.24967H2C1.66848 9.24967 1.35054 9.11798 1.11612 8.88356C0.881696 8.64914 0.75 8.33119 0.75 7.99967C0.75 7.66815 0.881696 7.35021 1.11612 7.11579C1.35054 6.88137 1.66848 6.74967 2 6.74967H22C22.3315 6.74967 22.6495 6.88137 22.8839 7.11579C23.1183 7.35021 23.25 7.66815 23.25 7.99967ZM23.25 14.6663C23.25 14.9979 23.1183 15.3158 22.8839 15.5502C22.6495 15.7846 22.3315 15.9163 22 15.9163H2C1.66848 15.9163 1.35054 15.7846 1.11612 15.5502C0.881696 15.3158 0.75 14.9979 0.75 14.6663C0.75 14.3348 0.881696 14.0169 1.11612 13.7825C1.35054 13.548 1.66848 13.4163 2 13.4163H22C22.3315 13.4163 22.6495 13.548 22.8839 13.7825C23.1183 14.0169 23.25 14.3348 23.25 14.6663Z" fill="white"/>
</svg>
