<svg width="40" height="40" viewBox="0 0 40 40" fill="none" xmlns="http://www.w3.org/2000/svg">
<path opacity="0.5" d="M20.0007 36.6663C12.144 36.6663 8.21565 36.6663 5.77398 34.2247C3.33398 31.7863 3.33398 27.8563 3.33398 19.9997C3.33398 12.143 3.33398 8.21467 5.77398 5.77301C8.21732 3.33301 12.144 3.33301 20.0007 3.33301C27.8573 3.33301 31.7857 3.33301 34.2257 5.77301C36.6673 8.21634 36.6673 12.143 36.6673 19.9997C36.6673 27.8563 36.6673 31.7847 34.2257 34.2247C31.7873 36.6663 27.8573 36.6663 20.0007 36.6663Z" fill="white"/>
<path d="M31.25 13.333C31.25 13.6645 31.1183 13.9825 30.8839 14.2169C30.6495 14.4513 30.3315 14.583 30 14.583H10C9.66848 14.583 9.35054 14.4513 9.11612 14.2169C8.8817 13.9825 8.75 13.6645 8.75 13.333C8.75 13.0015 8.8817 12.6835 9.11612 12.4491C9.35054 12.2147 9.66848 12.083 10 12.083H30C30.3315 12.083 30.6495 12.2147 30.8839 12.4491C31.1183 12.6835 31.25 13.0015 31.25 13.333ZM31.25 19.9997C31.25 20.3312 31.1183 20.6491 30.8839 20.8836C30.6495 21.118 30.3315 21.2497 30 21.2497H10C9.66848 21.2497 9.35054 21.118 9.11612 20.8836C8.8817 20.6491 8.75 20.3312 8.75 19.9997C8.75 19.6682 8.8817 19.3502 9.11612 19.1158C9.35054 18.8814 9.66848 18.7497 10 18.7497H30C30.3315 18.7497 30.6495 18.8814 30.8839 19.1158C31.1183 19.3502 31.25 19.6682 31.25 19.9997ZM31.25 26.6663C31.25 26.9979 31.1183 27.3158 30.8839 27.5502C30.6495 27.7846 30.3315 27.9163 30 27.9163H10C9.66848 27.9163 9.35054 27.7846 9.11612 27.5502C8.8817 27.3158 8.75 26.9979 8.75 26.6663C8.75 26.3348 8.8817 26.0169 9.11612 25.7825C9.35054 25.548 9.66848 25.4163 10 25.4163H30C30.3315 25.4163 30.6495 25.548 30.8839 25.7825C31.1183 26.0169 31.25 26.3348 31.25 26.6663Z" fill="white"/>
</svg>
