<svg width="32" height="30" viewBox="0 0 27 24" fill="none" xmlns="http://www.w3.org/2000/svg">
<path d="M7.44783 0.393139C8.59942 0.196925 9.78036 0.261651 10.9036 0.582547C12.0269 0.903443 13.0638 1.47233 13.9379 2.24727L13.9861 2.2902L14.0303 2.25117C14.8646 1.51901 15.8454 0.973182 16.9074 0.650092C17.9693 0.327002 19.0879 0.23408 20.1886 0.377526L20.5087 0.424367C21.8961 0.663919 23.1929 1.27422 24.2618 2.19063C25.3307 3.10704 26.1318 4.29545 26.5804 5.63002C27.029 6.96459 27.1083 8.39563 26.81 9.7716C26.5116 11.1476 25.8468 12.4173 24.8857 13.4462L24.6515 13.6869L24.5891 13.7402L14.8956 23.3414C14.6719 23.5628 14.3755 23.6956 14.0614 23.7152C13.7473 23.7348 13.4367 23.6399 13.1872 23.4481L13.0649 23.3414L3.3154 13.6843C2.28258 12.6794 1.54806 11.4082 1.19319 10.0115C0.838311 8.61486 0.876932 7.14723 1.30477 5.77117C1.73261 4.3951 2.53297 3.16431 3.61722 2.21509C4.70146 1.26587 6.02727 0.635277 7.44783 0.393139Z" fill="white"/>
</svg>
