<svg width="22" height="17" viewBox="0 0 22 17" fill="none" xmlns="http://www.w3.org/2000/svg">
<path d="M12.918 1.39463C12.6447 1.66792 12.5135 1.99816 12.5245 2.38533C12.5363 2.7725 12.6789 3.10273 12.9522 3.37603L16.8125 7.23634L1.5762 7.23634C1.18903 7.23634 0.864263 7.36753 0.601898 7.62989C0.340444 7.89135 0.209717 8.21566 0.209717 8.60283C0.209717 8.99 0.340444 9.31477 0.601898 9.57713C0.864263 9.83859 1.18903 9.96931 1.5762 9.96931L16.8125 9.96931L12.918 13.8638C12.6447 14.1371 12.5081 14.4619 12.5081 14.8381C12.5081 15.2134 12.6447 15.5377 12.918 15.811C13.1913 16.0843 13.5161 16.221 13.8923 16.221C14.2676 16.221 14.592 16.0843 14.8653 15.811L21.1169 9.55937C21.2536 9.42272 21.3506 9.27468 21.408 9.11526C21.4645 8.95584 21.4927 8.78503 21.4927 8.60283C21.4927 8.42063 21.4645 8.24982 21.408 8.0904C21.3506 7.93097 21.2536 7.78294 21.1169 7.64629L14.8311 1.36046C14.5806 1.10994 14.2676 0.984678 13.8923 0.984678C13.5161 0.984678 13.1913 1.12133 12.918 1.39463Z" fill="#FF364D"/>
</svg>
