<svg width="8" height="15" viewBox="0 0 8 15" fill="none" xmlns="http://www.w3.org/2000/svg">
<path d="M7.70754 13.864C7.89501 13.6764 8.00032 13.4221 8.00032 13.157C8.00032 12.8918 7.89501 12.6375 7.70754 12.45L2.75754 7.49995L7.70754 2.54995C7.88969 2.36135 7.99049 2.10875 7.98821 1.84655C7.98593 1.58435 7.88076 1.33354 7.69535 1.14813C7.50995 0.962724 7.25913 0.857556 6.99694 0.855278C6.73474 0.852999 6.48214 0.953793 6.29354 1.13595L0.636536 6.79295C0.449065 6.98048 0.34375 7.23479 0.34375 7.49995C0.34375 7.76512 0.449065 8.01942 0.636536 8.20695L6.29354 13.864C6.48106 14.0514 6.73537 14.1567 7.00054 14.1567C7.2657 14.1567 7.52001 14.0514 7.70754 13.864Z" fill="#A0A0A0"/>
</svg>
