<svg width="19" height="20" viewBox="0 0 19 20" fill="none" xmlns="http://www.w3.org/2000/svg">
<path d="M8.28488 2.85714H11.142C11.142 2.47826 10.9915 2.1149 10.7236 1.84699C10.4557 1.57908 10.0923 1.42857 9.71345 1.42857C9.33457 1.42857 8.97121 1.57908 8.7033 1.84699C8.43539 2.1149 8.28488 2.47826 8.28488 2.85714ZM6.85631 2.85714C6.85631 2.09938 7.15733 1.37266 7.69314 0.836838C8.22896 0.30102 8.95569 0 9.71345 0C10.4712 0 11.1979 0.30102 11.7338 0.836838C12.2696 1.37266 12.5706 2.09938 12.5706 2.85714H18.2849C18.4743 2.85714 18.656 2.9324 18.79 3.06635C18.9239 3.20031 18.9992 3.38199 18.9992 3.57143C18.9992 3.76087 18.9239 3.94255 18.79 4.0765C18.656 4.21046 18.4743 4.28571 18.2849 4.28571H17.4792L15.7577 16.9114C15.641 17.767 15.2182 18.5514 14.5676 19.1192C13.917 19.6871 13.0827 20 12.2192 20H7.20773C6.34419 20 5.50989 19.6871 4.85931 19.1192C4.20872 18.5514 3.78591 17.767 3.66916 16.9114L1.94773 4.28571H1.14202C0.95258 4.28571 0.770898 4.21046 0.636944 4.0765C0.502989 3.94255 0.427734 3.76087 0.427734 3.57143C0.427734 3.38199 0.502989 3.20031 0.636944 3.06635C0.770898 2.9324 0.95258 2.85714 1.14202 2.85714H6.85631ZM8.28488 7.85714C8.28488 7.6677 8.20962 7.48602 8.07567 7.35207C7.94171 7.21811 7.76003 7.14286 7.57059 7.14286C7.38115 7.14286 7.19947 7.21811 7.06552 7.35207C6.93156 7.48602 6.85631 7.6677 6.85631 7.85714V15C6.85631 15.1894 6.93156 15.3711 7.06552 15.5051C7.19947 15.639 7.38115 15.7143 7.57059 15.7143C7.76003 15.7143 7.94171 15.639 8.07567 15.5051C8.20962 15.3711 8.28488 15.1894 8.28488 15V7.85714ZM11.8563 7.14286C11.6669 7.14286 11.4852 7.21811 11.3512 7.35207C11.2173 7.48602 11.142 7.6677 11.142 7.85714V15C11.142 15.1894 11.2173 15.3711 11.3512 15.5051C11.4852 15.639 11.6669 15.7143 11.8563 15.7143C12.0457 15.7143 12.2274 15.639 12.3614 15.5051C12.4953 15.3711 12.5706 15.1894 12.5706 15V7.85714C12.5706 7.6677 12.4953 7.48602 12.3614 7.35207C12.2274 7.21811 12.0457 7.14286 11.8563 7.14286Z" fill="#A0A0A0"/>
</svg>
