<svg width="31" height="22" viewBox="0 0 31 22" fill="none" xmlns="http://www.w3.org/2000/svg">
<path d="M18.1719 0.803478C17.7853 1.19009 17.5997 1.65726 17.6152 2.20496C17.632 2.75266 17.8336 3.21982 18.2203 3.60644L23.6812 9.06738L2.12741 9.06738C1.57971 9.06738 1.12028 9.25295 0.749129 9.6241C0.379267 9.99396 0.194336 10.4527 0.194336 11.0005C0.194336 11.5482 0.379267 12.0076 0.749129 12.3787C1.12028 12.7486 1.57971 12.9335 2.12741 12.9335L23.6812 12.9335L18.1719 18.4428C17.7853 18.8294 17.592 19.2888 17.592 19.8211C17.592 20.352 17.7853 20.8108 18.1719 21.1974C18.5585 21.584 19.018 21.7773 19.5502 21.7773C20.0812 21.7773 20.54 21.584 20.9266 21.1974L29.7704 12.3536C29.9637 12.1603 30.1009 11.9509 30.1821 11.7254C30.262 11.4998 30.302 11.2582 30.302 11.0005C30.302 10.7427 30.262 10.5011 30.1821 10.2755C30.1009 10.05 29.9637 9.8406 29.7704 9.6473L20.8782 0.755154C20.5238 0.400755 20.0812 0.223555 19.5502 0.223555C19.018 0.223555 18.5585 0.416864 18.1719 0.803478Z" fill="#E31E24"/>
</svg>
