<svg width="27" height="24" viewBox="0 0 27 24" fill="none" xmlns="http://www.w3.org/2000/svg">
<path d="M7.46064 0.110913C8.61223 -0.085302 9.79318 -0.0205756 10.9164 0.30032C12.0397 0.621216 13.0766 1.1901 13.9507 1.96504L13.9989 2.00798L14.0431 1.96894C14.8774 1.23679 15.8582 0.690956 16.9202 0.367865C17.9821 0.044775 19.1007 -0.0481467 20.2014 0.095299L20.5215 0.14214C21.9089 0.381692 23.2057 0.991989 24.2746 1.9084C25.3435 2.82481 26.1446 4.01323 26.5932 5.34779C27.0418 6.68236 27.1211 8.1134 26.8228 9.48937C26.5245 10.8653 25.8596 12.135 24.8985 13.164L24.6643 13.4047L24.6019 13.458L14.9084 23.0591C14.6847 23.2805 14.3883 23.4134 14.0742 23.433C13.7601 23.4526 13.4495 23.3577 13.2 23.1658L13.0777 23.0591L3.32822 13.4021C2.2954 12.3971 1.56088 11.126 1.206 9.7293C0.851128 8.33264 0.88975 6.865 1.31759 5.48894C1.74543 4.11288 2.54579 2.88208 3.63003 1.93286C4.71428 0.983647 6.04009 0.35305 7.46064 0.110913Z" fill="#E31E24"/>
</svg>
