<svg width="80" height="81" viewBox="0 0 80 81" fill="none" xmlns="http://www.w3.org/2000/svg">
<path d="M61.25 0.25708H18.75C8.39466 0.25708 0 8.65174 0 19.0071V61.5071C0 71.8624 8.39466 80.2571 18.75 80.2571H61.25C71.6053 80.2571 80 71.8624 80 61.5071V19.0071C80 8.65174 71.6053 0.25708 61.25 0.25708Z" fill="url(#paint0_radial_821_766)"/>
<path d="M61.25 0.25708H18.75C8.39466 0.25708 0 8.65174 0 19.0071V61.5071C0 71.8624 8.39466 80.2571 18.75 80.2571H61.25C71.6053 80.2571 80 71.8624 80 61.5071V19.0071C80 8.65174 71.6053 0.25708 61.25 0.25708Z" fill="url(#paint1_radial_821_766)"/>
<path d="M40.0028 9.00708C31.5159 9.00708 30.4506 9.04427 27.1175 9.19583C23.7906 9.34833 21.5197 9.87489 19.5328 10.6477C17.4772 11.4458 15.7338 12.5136 13.9969 14.2511C12.2584 15.9883 11.1906 17.7318 10.39 19.7865C9.615 21.774 9.08781 24.0458 8.93812 27.3711C8.78906 30.7046 8.75 31.7702 8.75 40.2574C8.75 48.7446 8.7875 49.8065 8.93875 53.1396C9.09188 56.4665 9.61844 58.7374 10.3906 60.7243C11.1894 62.7799 12.2572 64.5233 13.9947 66.2602C15.7313 67.9986 17.4747 69.069 19.5288 69.8671C21.5172 70.6399 23.7884 71.1665 27.1147 71.319C30.4481 71.4705 31.5125 71.5077 39.9991 71.5077C48.4869 71.5077 49.5488 71.4705 52.8819 71.319C56.2088 71.1665 58.4822 70.6399 60.4706 69.8671C62.5253 69.069 64.2662 67.9986 66.0025 66.2602C67.7409 64.5233 68.8084 62.7799 69.6094 60.7252C70.3775 58.7374 70.905 56.4658 71.0612 53.1402C71.2109 49.8071 71.25 48.7446 71.25 40.2574C71.25 31.7702 71.2109 30.7052 71.0612 27.3718C70.905 24.0449 70.3775 21.7743 69.6094 19.7874C68.8084 17.7318 67.7409 15.9883 66.0025 14.2511C64.2644 12.513 62.5259 11.4452 60.4688 10.648C58.4766 9.87489 56.2044 9.34802 52.8775 9.19583C49.5441 9.04427 48.4828 9.00708 39.9931 9.00708H40.0028ZM37.1994 14.6386C38.0316 14.6374 38.96 14.6386 40.0028 14.6386C48.3469 14.6386 49.3356 14.6686 52.6306 14.8183C55.6775 14.9577 57.3312 15.4668 58.4328 15.8946C59.8913 16.4608 60.9309 17.138 62.0241 18.2321C63.1178 19.3258 63.7947 20.3674 64.3625 21.8258C64.7903 22.9258 65.3 24.5796 65.4388 27.6265C65.5884 30.9208 65.6209 31.9102 65.6209 40.2502C65.6209 48.5902 65.5884 49.5799 65.4388 52.874C65.2994 55.9208 64.7903 57.5746 64.3625 58.6749C63.7963 60.1333 63.1178 61.1718 62.0241 62.2649C60.9303 63.3586 59.8919 64.0355 58.4328 64.6021C57.3325 65.0318 55.6775 65.5396 52.6306 65.679C49.3363 65.8286 48.3469 65.8611 40.0028 65.8611C31.6584 65.8611 30.6694 65.8286 27.3753 65.679C24.3284 65.5383 22.6747 65.0293 21.5722 64.6015C20.1141 64.0349 19.0722 63.358 17.9784 62.2643C16.8847 61.1705 16.2078 60.1315 15.64 58.6724C15.2122 57.5721 14.7025 55.9183 14.5638 52.8715C14.4141 49.5771 14.3841 48.5877 14.3841 40.2424C14.3841 31.8971 14.4141 30.913 14.5638 27.6186C14.7031 24.5718 15.2122 22.918 15.64 21.8165C16.2066 20.358 16.8847 19.3165 17.9788 18.2227C19.0728 17.129 20.1141 16.4518 21.5725 15.8843C22.6741 15.4546 24.3284 14.9468 27.3753 14.8068C30.2581 14.6765 31.3753 14.6374 37.1994 14.6308V14.6386ZM56.6841 19.8274C54.6138 19.8274 52.9341 21.5055 52.9341 23.5761C52.9341 25.6465 54.6138 27.3261 56.6841 27.3261C58.7544 27.3261 60.4341 25.6465 60.4341 23.5761C60.4341 21.5058 58.7544 19.8261 56.6841 19.8261V19.8274ZM40.0028 24.209C31.1403 24.209 23.9547 31.3946 23.9547 40.2574C23.9547 49.1202 31.1403 56.3024 40.0028 56.3024C48.8656 56.3024 56.0488 49.1202 56.0488 40.2574C56.0488 31.3949 48.865 24.209 40.0022 24.209H40.0028ZM40.0028 29.8405C45.7556 29.8405 50.4197 34.504 50.4197 40.2574C50.4197 46.0102 45.7556 50.6743 40.0028 50.6743C34.25 50.6743 29.5863 46.0102 29.5863 40.2574C29.5863 34.504 34.2497 29.8405 40.0028 29.8405Z" fill="white"/>
<defs>
<radialGradient id="paint0_radial_821_766" cx="0" cy="0" r="1" gradientUnits="userSpaceOnUse" gradientTransform="translate(21.25 86.4186) rotate(-90) scale(79.2859 73.7422)">
<stop stop-color="#FFDD55"/>
<stop offset="0.1" stop-color="#FFDD55"/>
<stop offset="0.5" stop-color="#FF543E"/>
<stop offset="1" stop-color="#C837AB"/>
</radialGradient>
<radialGradient id="paint1_radial_821_766" cx="0" cy="0" r="1" gradientUnits="userSpaceOnUse" gradientTransform="translate(-13.4003 6.01989) rotate(78.681) scale(35.4413 146.09)">
<stop stop-color="#3771C8"/>
<stop offset="0.128" stop-color="#3771C8"/>
<stop offset="1" stop-color="#6600FF" stop-opacity="0"/>
</radialGradient>
</defs>
</svg>
