<svg width="27" height="24" viewBox="0 0 27 24" fill="none" xmlns="http://www.w3.org/2000/svg">
<path d="M7.4604 0.393139C8.61199 0.196925 9.79294 0.261651 10.9162 0.582547C12.0394 0.903443 13.0763 1.47233 13.9505 2.24727L13.9986 2.2902L14.0429 2.25117C14.8772 1.51901 15.858 0.973182 16.9199 0.650092C17.9819 0.327002 19.1005 0.23408 20.2012 0.377526L20.5213 0.424367C21.9087 0.663919 23.2055 1.27422 24.2744 2.19063C25.3432 3.10704 26.1444 4.29545 26.593 5.63002C27.0416 6.96459 27.1209 8.39563 26.8226 9.7716C26.5242 11.1476 25.8593 12.4173 24.8983 13.4462L24.6641 13.6869L24.6016 13.7402L14.9081 23.3414C14.6844 23.5628 14.3881 23.6956 14.0739 23.7152C13.7598 23.7348 13.4492 23.6399 13.1997 23.4481L13.0774 23.3414L3.32797 13.6843C2.29515 12.6794 1.56063 11.4082 1.20576 10.0115C0.850884 8.61486 0.889505 7.14723 1.31734 5.77117C1.74518 4.3951 2.54555 3.16431 3.62979 2.21509C4.71403 1.26587 6.03985 0.635277 7.4604 0.393139Z" fill="#E31E24"/>
</svg>
