<svg width="32" height="22" viewBox="0 0 32 22" fill="none" xmlns="http://www.w3.org/2000/svg">
<path d="M18.9188 0.80299C18.5321 1.18961 18.3466 1.65677 18.362 2.20447C18.3788 2.75218 18.5805 3.21933 18.9671 3.60595L24.428 9.06689L2.87424 9.06689C2.32653 9.06689 1.86711 9.25246 1.49596 9.62361C1.12609 9.99347 0.941162 10.4523 0.941162 11C0.941162 11.5477 1.12609 12.0071 1.49596 12.3782C1.86711 12.7481 2.32653 12.933 2.87424 12.933L24.428 12.933L18.9188 18.4423C18.5321 18.8289 18.3388 19.2883 18.3388 19.8206C18.3388 20.3515 18.5321 20.8103 18.9188 21.1969C19.3054 21.5835 19.7648 21.7769 20.297 21.7769C20.828 21.7769 21.2868 21.5835 21.6734 21.1969L30.5172 12.3531C30.7105 12.1598 30.8478 11.9504 30.929 11.7249C31.0089 11.4993 31.0488 11.2577 31.0488 11C31.0488 10.7422 31.0089 10.5006 30.929 10.2751C30.8478 10.0495 30.7105 9.84012 30.5172 9.64681L21.6251 0.754665C21.2707 0.400267 20.828 0.223066 20.297 0.223066C19.7648 0.223066 19.3054 0.416376 18.9188 0.80299Z" fill="#E31E24"/>
</svg>
