<svg width="121" height="121" viewBox="0 0 121 121" fill="none" xmlns="http://www.w3.org/2000/svg">
<path d="M5.95455 120.5C8.59091 113.1 10.3418 105.476 11.2073 97.628C12.0727 89.78 12.5945 81.904 12.7727 74C9.22727 72.5 6.29636 70 3.98 66.5C1.66364 63 0.503636 59 0.5 54.5V42.5C10.9545 38.7 21.6145 32.9 32.48 25.1C43.3455 17.3 52.6855 9.1 60.5 0.5C68.3182 9.1 77.66 17.3 88.5255 25.1C99.3909 32.9 110.049 38.7 120.5 42.5V54.5C120.5 59 119.34 63 117.02 66.5C114.7 70 111.769 72.5 108.227 74C108.409 81.9 108.933 89.776 109.798 97.628C110.664 105.48 112.413 113.104 115.045 120.5H5.95455ZM27.2273 42.5H93.7727C86.6818 38.1 80.2964 33.576 74.6164 28.928C68.9364 24.28 64.2309 20.204 60.5 16.7C56.7727 20.2 52.0673 24.276 46.3836 28.928C40.7 33.58 34.3145 38.104 27.2273 42.5ZM74.1364 63.5C76.4091 63.5 78.3418 62.626 79.9345 60.878C81.5273 59.13 82.3218 57.004 82.3182 54.5H65.9545C65.9545 57 66.7509 59.126 68.3436 60.878C69.9364 62.63 71.8673 63.504 74.1364 63.5ZM46.8636 63.5C49.1364 63.5 51.0691 62.626 52.6618 60.878C54.2545 59.13 55.0491 57.004 55.0455 54.5H38.6818C38.6818 57 39.4782 59.126 41.0709 60.878C42.6636 62.63 44.5945 63.504 46.8636 63.5ZM19.5909 63.5C21.8636 63.5 23.7964 62.626 25.3891 60.878C26.9818 59.13 27.7764 57.004 27.7727 54.5H11.4091C11.4091 57 12.2055 59.126 13.7982 60.878C15.3909 62.63 17.3218 63.504 19.5909 63.5ZM20.4091 108.5H35C35.8182 102.5 36.4545 96.55 36.9091 90.65C37.3636 84.75 37.7273 78.8 38 72.8C37.1818 72.3 36.3636 71.774 35.5455 71.222C34.7273 70.67 33.9545 69.996 33.2273 69.2C31.8636 70.7 30.3873 71.926 28.7982 72.878C27.2091 73.83 25.5036 74.554 23.6818 75.05C23.5 80.75 23.1818 86.376 22.7273 91.928C22.2727 97.48 21.5 103.004 20.4091 108.5ZM46.0455 108.5H74.9545C74.2273 103 73.66 97.5 73.2527 92C72.8455 86.5 72.5036 80.95 72.2273 75.35C69.8636 75.15 67.7055 74.526 65.7527 73.478C63.8 72.43 62.0491 71.054 60.5 69.35C58.9545 71.05 57.16 72.426 55.1164 73.478C53.0727 74.53 50.9582 75.154 48.7727 75.35C48.5 80.95 48.16 86.5 47.7527 92C47.3455 97.5 46.7764 103 46.0455 108.5ZM86 108.5H100.591C99.5 103 98.7273 97.476 98.2727 91.928C97.8182 86.38 97.5 80.754 97.3182 75.05C95.5 74.55 93.7727 73.824 92.1364 72.872C90.5 71.92 89.0455 70.696 87.7727 69.2C87.0455 70 86.2727 70.676 85.4546 71.228C84.6364 71.78 83.8182 72.304 83 72.8C83.2727 78.8 83.66 84.75 84.1618 90.65C84.6636 96.55 85.2764 102.5 86 108.5ZM101.409 63.5C103.682 63.5 105.615 62.626 107.207 60.878C108.8 59.13 109.595 57.004 109.591 54.5H93.2273C93.2273 57 94.0236 59.126 95.6164 60.878C97.2091 62.63 99.14 63.504 101.409 63.5Z" fill="#4B4B4B"/>
</svg>
