<svg width="130" height="129" viewBox="0 0 130 129" fill="none" xmlns="http://www.w3.org/2000/svg">
<path d="M129.071 39.0133V70.8717H0.5V39.0133H39.8814C41.3114 44.4817 44.533 49.3247 49.0405 52.782C53.548 56.2393 59.0862 58.1152 64.7857 58.1152C70.4853 58.1152 76.0235 56.2393 80.531 52.782C85.0385 49.3247 88.26 44.4817 89.69 39.0133H129.071ZM129.071 26.2699H0.5L32.6429 0.783203H96.9286L129.071 26.2699ZM129.071 83.6151V115.473C129.071 118.853 127.717 122.095 125.306 124.484C122.894 126.874 119.624 128.217 116.214 128.217H13.3571C9.94722 128.217 6.67695 126.874 4.26577 124.484C1.85459 122.095 0.5 118.853 0.5 115.473V83.6151H39.8814C41.3114 89.0835 44.533 93.9265 49.0405 97.3838C53.548 100.841 59.0862 102.717 64.7857 102.717C70.4853 102.717 76.0235 100.841 80.531 97.3838C85.0385 93.9265 88.26 89.0835 89.69 83.6151H129.071ZM53.6514 83.6151H75.92C74.7915 85.5522 73.1685 87.1607 71.214 88.2791C69.2595 89.3974 67.0425 89.9862 64.7857 89.9862C62.5289 89.9862 60.3119 89.3974 58.3574 88.2791C56.403 87.1607 54.7799 85.5522 53.6514 83.6151ZM53.6386 39.0898H75.9071C74.7786 41.0268 73.1556 42.6354 71.2011 43.7537C69.2467 44.8721 67.0296 45.4609 64.7729 45.4609C62.5161 45.4609 60.299 44.8721 58.3446 43.7537C56.3901 42.6354 54.7671 41.0268 53.6386 39.0898Z" fill="#4B4B4B"/>
</svg>
