<svg width="121" height="121" viewBox="0 0 121 121" fill="none" xmlns="http://www.w3.org/2000/svg">
<path d="M111.643 54.5V24.5H85.9291V12.5H60.2148V0.5H25.9291V18.5H8.78627V54.5H0.214844L17.3577 120.5H103.072L120.215 54.5H111.643ZM93.3006 54.5C91.9291 58.16 89.3577 61.46 85.9291 64.22V40.22L103.072 46.22V54.5H93.3006ZM103.072 30.5V39.5L85.9291 33.5V30.5H103.072ZM60.2148 18.5H77.3577V39.5L60.2148 45.5V18.5ZM60.2148 52.22L77.3577 46.22V69.2C72.3006 71.3 66.472 72.5 60.2148 72.5V52.22ZM51.6434 71.66C44.872 70.4 38.7863 67.82 34.5006 64.22V46.22L51.6434 40.22V71.66ZM34.5006 6.5H51.6434V33.5L43.072 36.5V18.5H34.5006V6.5ZM17.3577 24.5H34.5006V39.5L25.9291 42.5V54.5H17.3577V24.5Z" fill="#4B4B4B"/>
</svg>
