<svg width="121" height="121" viewBox="0 0 121 121" fill="none" xmlns="http://www.w3.org/2000/svg">
<path d="M60.4287 0.5C65.5415 0.5 70.4382 2.54025 74.0327 6.1527L78.2213 10.3412C79.569 11.681 81.3917 12.4338 83.2921 12.4355H89.2929C94.3858 12.4355 99.2702 14.4586 102.871 18.0597C106.473 21.6609 108.496 26.5451 108.496 31.6378V37.6386C108.496 39.5348 109.252 41.3591 110.578 42.6972L114.767 46.8857C116.56 48.6692 117.984 50.7894 118.955 53.1245C119.927 55.4596 120.428 57.9637 120.429 60.4929C120.43 63.0221 119.931 65.5266 118.962 67.8626C117.992 70.1986 116.571 72.3201 114.779 74.1051L110.59 78.2936C109.25 79.6413 108.497 81.4639 108.496 83.3642V89.365C108.496 94.4578 106.473 99.3419 102.871 102.943C99.2702 106.544 94.3858 108.567 89.2929 108.567H83.2921C81.3976 108.569 79.58 109.317 78.2333 110.65L74.0447 114.838C72.2612 116.631 70.141 118.055 67.8058 119.026C65.4706 119.998 62.9665 120.499 60.4372 120.5C57.9079 120.501 55.4034 120.003 53.0673 119.033C50.7313 118.063 48.6098 116.642 46.8247 114.85L42.6361 110.662C41.2884 109.322 39.4657 108.569 37.5653 108.567H31.5645C26.4716 108.567 21.5872 106.544 17.986 102.943C14.3848 99.3419 12.3616 94.4578 12.3616 89.365V83.3642C12.36 81.4698 11.6119 79.6523 10.2793 78.3056L6.09072 74.1171C4.29731 72.3336 2.87391 70.2134 1.90225 67.8783C0.930593 65.5432 0.429828 63.0391 0.428713 60.5099C0.427598 57.9807 0.926155 55.4762 1.89575 53.1402C2.86535 50.8042 4.28688 48.6828 6.07872 46.8977L10.2673 42.7092C11.6072 41.3616 12.36 39.5389 12.3616 37.6386V31.6378L12.3916 30.5457C12.6706 25.6497 14.8121 21.046 18.3771 17.6786C21.9421 14.3111 26.6604 12.4352 31.5645 12.4355H37.5653C39.4599 12.4338 41.2774 11.6857 42.6241 10.3532L46.8127 6.1647C48.597 4.36981 50.7185 2.94533 53.0552 1.97318C55.392 1.00102 57.8978 0.500367 60.4287 0.5ZM75.3709 66.4421C72.9836 66.4421 70.6941 67.3905 69.006 69.0785C67.3179 70.7665 66.3696 73.056 66.3696 75.4433C66.3696 77.8305 67.3179 80.12 69.006 81.808C70.6941 83.496 72.9836 84.4444 75.3709 84.4444C77.7582 84.4444 80.0477 83.496 81.7358 81.808C83.4239 80.12 84.3722 77.8305 84.3722 75.4433C84.3722 73.056 83.4239 70.7665 81.7358 69.0785C80.0477 67.3905 77.7582 66.4421 75.3709 66.4421ZM82.614 38.1967C81.4886 37.0717 79.9626 36.4397 78.3713 36.4397C76.7801 36.4397 75.2541 37.0717 74.1287 38.1967L38.1234 74.2011C37.0303 75.3329 36.4255 76.8487 36.4391 78.422C36.4528 79.9954 37.0839 81.5005 38.1965 82.6131C39.3091 83.7256 40.8142 84.3567 42.3876 84.3704C43.9611 84.3841 45.4769 83.7792 46.6087 82.6861L82.614 46.6817C83.739 45.5564 84.3709 44.0304 84.3709 42.4392C84.3709 40.848 83.739 39.322 82.614 38.1967ZM45.3665 36.4384C42.9792 36.4384 40.6897 37.3868 39.0016 39.0748C37.3135 40.7628 36.3652 43.0523 36.3652 45.4396C36.3652 47.8268 37.3135 50.1163 39.0016 51.8043C40.6897 53.4923 42.9792 54.4407 45.3665 54.4407C47.7538 54.4407 50.0433 53.4923 51.7314 51.8043C53.4195 50.1163 54.3678 47.8268 54.3678 45.4396C54.3678 43.0523 53.4195 40.7628 51.7314 39.0748C50.0433 37.3868 47.7538 36.4384 45.3665 36.4384Z" fill="white"/>
</svg>
