<svg width="43" height="31" viewBox="0 0 43 31" fill="none" xmlns="http://www.w3.org/2000/svg">
<path d="M25.3541 1.42401C24.8127 1.96543 24.5528 2.61964 24.5745 3.38665C24.5979 4.15366 24.8804 4.80787 25.4218 5.34928L33.0693 12.9968L2.88531 12.9968C2.1183 12.9968 1.47492 13.2567 0.955157 13.7764C0.437201 14.2944 0.178223 14.9369 0.178223 15.7039C0.178223 16.4709 0.437201 17.1143 0.955157 17.634C1.47492 18.152 2.1183 18.411 2.88531 18.411L33.0693 18.411L25.3541 26.1262C24.8127 26.6676 24.542 27.311 24.542 28.0563C24.542 28.7999 24.8127 29.4424 25.3541 29.9838C25.8955 30.5252 26.5389 30.7959 27.2843 30.7959C28.0278 30.7959 28.6703 30.5252 29.2117 29.9838L41.5966 17.5989C41.8674 17.3281 42.0596 17.0349 42.1733 16.719C42.2852 16.4032 42.3411 16.0648 42.3411 15.7039C42.3411 15.3429 42.2852 15.0046 42.1733 14.6887C42.0596 14.3729 41.8674 14.0796 41.5966 13.8089L29.144 1.35633C28.6477 0.860033 28.0278 0.611879 27.2843 0.611879C26.5389 0.611879 25.8955 0.882591 25.3541 1.42401Z" fill="#E31E24"/>
</svg>
