<svg width="37" height="37" viewBox="0 0 37 37" fill="none" xmlns="http://www.w3.org/2000/svg">
<path d="M12.5368 3.85938L6.81416 13.874H4.62499C4.38793 13.874 4.15405 13.9286 3.94153 14.0337C3.72901 14.1387 3.54358 14.2914 3.39965 14.4797C3.25573 14.6681 3.15718 14.8871 3.11168 15.1198C3.06617 15.3524 3.07493 15.5924 3.13728 15.8212L7.45241 31.6433C7.63127 32.2955 8.01921 32.871 8.55669 33.2815C9.09418 33.692 9.75151 33.9148 10.4278 33.9157H26.5737C27.9581 33.9157 29.1822 32.983 29.5491 31.6417L33.8642 15.8196C33.927 15.5908 33.936 15.3506 33.8905 15.1178C33.8451 14.885 33.7464 14.6658 33.6022 14.4774C33.458 14.289 33.2722 14.1366 33.0593 14.0319C32.8464 13.9272 32.6122 13.8732 32.375 13.874H30.1858L24.4632 3.85938L21.7868 5.38871L26.6354 13.874H10.3646L15.2132 5.38871L12.5368 3.85938ZM21.5833 20.0407H24.6667V27.749H21.5833V20.0407ZM12.3333 20.0407H15.4167V27.749H12.3333V20.0407Z" fill="white"/>
</svg>
