<svg width="35" height="32" viewBox="0 0 35 32" fill="none" xmlns="http://www.w3.org/2000/svg">
<path d="M8.58277 0.86043C10.1045 0.601147 11.665 0.686678 13.1493 1.11072C14.6336 1.53476 16.0038 2.2865 17.159 3.31053L17.2226 3.36727L17.281 3.31568C18.3835 2.34819 19.6796 1.62692 21.0829 1.19997C22.4861 0.773034 23.9643 0.650245 25.4188 0.839798L25.8418 0.901695C27.6751 1.21825 29.3888 2.02471 30.8012 3.23568C32.2136 4.44665 33.2723 6.01706 33.8651 7.78059C34.4579 9.54413 34.5627 11.4351 34.1685 13.2534C33.7742 15.0716 32.8956 16.7494 31.6257 18.1091L31.3162 18.4272L31.2337 18.4977L18.4244 31.1849C18.1288 31.4774 17.7372 31.653 17.3221 31.6789C16.907 31.7048 16.4966 31.5794 16.1669 31.3259L16.0053 31.1849L3.12206 18.4238C1.75726 17.0958 0.786647 15.416 0.317706 13.5704C-0.151235 11.7249 -0.100199 9.78548 0.46516 7.96711C1.03052 6.14874 2.08814 4.52233 3.52089 3.26801C4.95364 2.01369 6.70561 1.1804 8.58277 0.86043Z" fill="white"/>
</svg>
