<svg width="32" height="33" viewBox="0 0 32 33" fill="none" xmlns="http://www.w3.org/2000/svg">
<path d="M1 16.6143C1 18.5841 1.38799 20.5346 2.14181 22.3545C2.89563 24.1744 4.00052 25.828 5.3934 27.2209C6.78628 28.6137 8.43986 29.7186 10.2597 30.4725C12.0796 31.2263 14.0302 31.6143 16 31.6143C17.9698 31.6143 19.9204 31.2263 21.7403 30.4725C23.5601 29.7186 25.2137 28.6137 26.6066 27.2209C27.9995 25.828 29.1044 24.1744 29.8582 22.3545C30.612 20.5346 31 18.5841 31 16.6143C31 12.636 29.4196 8.8207 26.6066 6.00766C23.7936 3.19461 19.9782 1.61426 16 1.61426C12.0218 1.61426 8.20644 3.19461 5.3934 6.00766C2.58035 8.8207 1 12.636 1 16.6143Z" stroke="#E31E24" stroke-width="2" stroke-linecap="round" stroke-linejoin="round"/>
</svg>
